<svg  id="txace_logo" xmlns="http://www.w3.org/2000/svg"  viewBox="0 0 932 435"> 
<style type="text/css">
	.st0{fill:#8BC53F;}
	.st1{fill:#FFFFFF;}
</style>
<g>
	<g>
		<polygon class="st0" points="117.8,99.1 117.8,256.7 82.6,256.7 82.6,99.1 13,99.1 13,64.9 187.6,64.9 187.6,99.1 117.8,99.1 		
			"/>
		<path class="st0" d="M163.4,334.1c-20.7,0-39.8-17.4-61.8-43.5l19.8-16.7c12.8,15.2,31,35.5,43,34.2c15.2-1.4,36.4-38,65.6-88.8
			c6.2-10.7,12.9-22.3,20.1-34.7l0,0c1-1.7,2-3.4,3-5l0.6-1.1l0,0c9.7-16.3,18.7-31.5,26.9-45.6C329.5,49.9,354,8.2,386.4,7.9h0.3
			c24.8,0,45.4,25.4,68.7,63.6L433.3,85c-7.7-12.7-31.2-51.2-46.6-51.2h-0.1C368.9,34,341.3,81,303.1,146.1
			c-8.4,14.4-17.6,30-27.6,46.7c-8.4,14.3-16,27.4-23,39.5c-38,66-57.1,99.1-85.8,101.6C165.6,334.1,164.5,334.1,163.4,334.1
			L163.4,334.1z"/>
		<polygon class="st0" points="327.4,257.1 308.5,257.1 308.5,242.4 283.5,242.4 283.5,217.4 260.4,217.4 260.4,194.4 235.8,194.4 
			235.8,168.7 212.3,168.7 212.3,141.6 187.4,141.6 187.4,106.1 206.3,106.1 206.3,122.8 231.1,122.8 231.1,149.8 254.6,149.8 
			254.6,175.6 279.3,175.6 279.3,198.5 302.4,198.5 302.4,223.5 327.4,223.5 327.4,257.1 		"/>
		<path class="st1" d="M701.9,132.7h-95.1v96h95.1v-32.6l35.2,7.3v17.9c0,14.1-2.6,23.6-7.9,28.5c-5.3,4.9-15.2,7.3-29.6,7.3h-90.4
			c-14.5,0-24.4-2.4-29.7-7.3c-5.3-4.9-7.9-14.4-7.9-28.5v-79.8c0-14.1,2.7-23.6,7.9-28.5c5.3-4.9,15.2-7.3,29.7-7.3h90.4
			c14.5,0,24.4,2.4,29.6,7.3c5.3,4.9,7.9,14.4,7.9,28.5v14.4l-35.2,5.6V132.7L701.9,132.7z"/>
		<polygon class="st1" points="760.6,257.1 760.6,105.7 915.6,105.7 915.6,131.5 795.8,131.5 795.8,165.3 865.7,165.3 865.7,191.1 
			795.8,191.1 795.8,228.7 917.1,228.7 917.1,257.1 760.6,257.1 		"/>
		<path class="st1" d="M122.6,406.4c-1.7,0.9-3.5,1.6-5.3,2.2c-1.8,0.5-3.6,0.9-5.5,1.2c-1.8,0.2-3.7,0.3-5.7,0.3
			c-3.7,0-6.9-0.5-9.8-1.5c-2.9-1-5.4-2.5-7.5-4.4c-2.1-2-3.7-4.3-4.8-6.9c-1-2.6-1.6-5.5-1.6-8.6c0-3.6,0.6-6.7,1.9-9.5
			c1.3-2.7,3-5,5.2-6.7c2.2-1.8,4.8-3.1,7.7-4c2.9-0.8,5.9-1.3,9.1-1.3c4.7,0,10.1,1,16.1,3.2v11.1c-2.1-1.3-4.1-2.4-6.1-3.2
			c-2-0.9-4.4-1.3-7.1-1.3c-2.4,0-4.7,0.5-6.8,1.5c-2.1,1-3.8,2.3-5.1,4.1c-1.3,1.8-1.9,3.9-1.9,6.3c0,2.1,0.6,4.1,1.7,5.8
			c1.1,1.7,2.7,3.1,4.7,4.2c2,1,4.3,1.5,6.8,1.5c2,0,4-0.2,5.8-0.7c1.8-0.5,3.3-1,4.6-1.6c1.2-0.6,2.5-1.3,3.8-2.1V406.4
			L122.6,406.4z"/>
		<polygon class="st1" points="162.6,409.6 131.1,409.6 131.1,367.8 162.1,367.8 162.1,376.1 143.7,376.1 143.7,383.8 161.2,383.8 
			161.2,392.2 143.7,392.2 143.7,401.2 162.6,401.2 162.6,409.6 		"/>
		<polygon class="st1" points="216.4,409.6 205.2,409.6 183.5,386.3 183.5,409.6 171,409.6 171,367.8 182.2,367.8 203.8,390.9 
			203.8,367.8 216.4,367.8 216.4,409.6 		"/>
		<polygon class="st1" points="267,377.9 251.7,377.9 251.7,409.6 239.1,409.6 239.1,377.9 223.8,377.9 223.8,367.8 267,367.8 
			267,377.9 		"/>
		<polygon class="st1" points="305.9,409.6 274.3,409.6 274.3,367.8 305.3,367.8 305.3,376.1 287,376.1 287,383.8 304.5,383.8 
			304.5,392.2 287,392.2 287,401.2 305.9,401.2 305.9,409.6 		"/>
		<path class="st1" d="M337.6,381c0-1.9-0.6-3.3-1.9-4c-1.3-0.8-3.3-1.1-6.2-1.1h-2.7v10.1h2.7c3.1,0,5.2-0.3,6.3-1
			C337.1,384.2,337.6,382.9,337.6,381 M354.8,409.6h-13.5l-3.3-7.4c-1.2-2.7-2.3-4.7-3.3-6c-1-1.3-1.9-2.1-2.8-2.4
			c-0.9-0.3-2.1-0.5-3.6-0.5h-1.4v16.3h-12.6v-41.8h21.4c3.5,0,6.3,0.7,8.5,2.1c2.2,1.4,3.8,3.1,4.8,5.1c1,2,1.5,3.9,1.5,5.7
			c0,2.1-0.4,3.9-1.2,5.3c-0.8,1.5-1.7,2.5-2.6,3.2c-0.9,0.7-1.9,1.3-3,1.9c1.3,0.8,2.5,1.7,3.3,2.8c0.9,1.1,2.1,3.2,3.6,6.5
			L354.8,409.6L354.8,409.6z"/>
		<path class="st1" d="M410.7,388.6c0-1.6-0.2-3-0.7-4.3c-0.5-1.3-1.2-2.4-2.1-3.4c-0.9-0.9-2.1-1.7-3.4-2.2
			c-1.4-0.5-2.9-0.8-4.7-0.8c-3.4,0-6,1-8,3c-1.9,2-2.9,4.5-2.9,7.7c0,3.2,1,5.8,2.9,7.8c1.9,2,4.6,3,7.9,3c2.3,0,4.3-0.5,5.9-1.4
			c1.6-0.9,2.9-2.2,3.7-3.8C410.3,392.6,410.7,390.7,410.7,388.6 M423.6,388.6c0,3.9-0.9,7.5-2.7,10.8c-1.8,3.3-4.5,5.9-8,7.8
			c-3.6,1.9-7.9,2.9-13,2.9c-5.2,0-9.5-1-13.1-3c-3.6-2-6.2-4.7-8-7.9c-1.7-3.3-2.6-6.8-2.6-10.5c0-3.8,0.9-7.3,2.6-10.5
			c1.7-3.3,4.4-5.9,8-7.9c3.6-2,8-3,13.1-3c3.9,0,7.3,0.6,10.3,1.7c3,1.2,5.5,2.7,7.5,4.7c1.9,2,3.4,4.2,4.4,6.8
			C423.1,383,423.6,385.8,423.6,388.6"/>
		<polygon class="st1" points="461.4,392.7 444,392.7 444,409.6 431.4,409.6 431.4,367.8 461.4,367.8 461.4,376.2 444,376.2 
			444,384.2 461.4,384.2 461.4,392.7 		"/>
		<polygon class="st1" points="519.7,409.6 488.2,409.6 488.2,367.8 519.2,367.8 519.2,376.1 500.8,376.1 500.8,383.8 518.3,383.8 
			518.3,392.2 500.8,392.2 500.8,401.2 519.7,401.2 519.7,409.6 		"/>
		<path class="st1" d="M575.3,409.6h-16.2l-4.4-5.2c-0.1-0.2-1-1.3-2.6-3.2c-1.6-1.9-2.7-3.3-3.2-4c-2.4,3.3-4.4,5.8-5.9,7.7
			l-3.8,4.7h-16l17.7-21.7L524,367.8h16.1l2.9,3.5c1.6,2,3.6,4.6,5.9,7.6c2.2-3.2,3.9-5.6,5.2-7.1l3.3-3.9h15.8l-16.3,20.1
			L575.3,409.6L575.3,409.6z"/>
		<path class="st1" d="M615.7,406.4c-1.7,0.9-3.5,1.6-5.3,2.2c-1.8,0.5-3.6,0.9-5.5,1.2c-1.8,0.2-3.7,0.3-5.7,0.3
			c-3.7,0-6.9-0.5-9.8-1.5c-2.9-1-5.4-2.5-7.5-4.4c-2.1-2-3.7-4.3-4.8-6.9c-1-2.6-1.6-5.5-1.6-8.6c0-3.6,0.6-6.7,1.9-9.5
			c1.3-2.7,3-5,5.2-6.7c2.2-1.8,4.8-3.1,7.7-4c2.9-0.8,5.9-1.3,9.1-1.3c4.7,0,10.1,1,16.1,3.2v11.1c-2.1-1.3-4.1-2.4-6.1-3.2
			c-2-0.9-4.4-1.3-7.1-1.3c-2.4,0-4.7,0.5-6.8,1.5c-2.1,1-3.8,2.3-5.1,4.1c-1.3,1.8-1.9,3.9-1.9,6.3c0,2.1,0.6,4.1,1.7,5.8
			c1.1,1.7,2.7,3.1,4.7,4.2c2,1,4.3,1.5,6.8,1.5c2,0,4-0.2,5.8-0.7c1.8-0.5,3.3-1,4.6-1.6c1.2-0.6,2.5-1.3,3.8-2.1V406.4
			L615.7,406.4z"/>
		<polygon class="st1" points="655.7,409.6 624.2,409.6 624.2,367.8 655.2,367.8 655.2,376.1 636.8,376.1 636.8,383.8 654.3,383.8 
			654.3,392.2 636.8,392.2 636.8,401.2 655.7,401.2 655.7,409.6 		"/>
		<polygon class="st1" points="695.9,409.6 664.1,409.6 664.1,367.8 676.7,367.8 676.7,399.6 695.9,399.6 695.9,409.6 		"/>
		<polygon class="st1" points="735,409.6 703.2,409.6 703.2,367.8 715.8,367.8 715.8,399.6 735,399.6 735,409.6 		"/>
		<polygon class="st1" points="773.8,409.6 742.3,409.6 742.3,367.8 773.3,367.8 773.3,376.1 754.9,376.1 754.9,383.8 772.5,383.8 
			772.5,392.2 754.9,392.2 754.9,401.2 773.8,401.2 773.8,409.6 		"/>
		<polygon class="st1" points="827.6,409.6 816.4,409.6 794.7,386.3 794.7,409.6 782.3,409.6 782.3,367.8 793.4,367.8 815.1,390.9 
			815.1,367.8 827.6,367.8 827.6,409.6 		"/>
		<path class="st1" d="M875.6,406.4c-1.7,0.9-3.5,1.6-5.3,2.2c-1.8,0.5-3.6,0.9-5.5,1.2c-1.8,0.2-3.7,0.3-5.7,0.3
			c-3.7,0-6.9-0.5-9.8-1.5c-2.9-1-5.4-2.5-7.5-4.4c-2.1-2-3.7-4.3-4.8-6.9c-1-2.6-1.6-5.5-1.6-8.6c0-3.6,0.6-6.7,1.9-9.5
			c1.3-2.7,3-5,5.2-6.7c2.2-1.8,4.8-3.1,7.7-4c2.9-0.8,5.9-1.3,9.1-1.3c4.7,0,10.1,1,16.1,3.2v11.1c-2.1-1.3-4.1-2.4-6.1-3.2
			c-2-0.9-4.4-1.3-7.1-1.3c-2.4,0-4.7,0.5-6.8,1.5c-2.1,1-3.8,2.3-5.1,4.1c-1.3,1.8-1.9,3.9-1.9,6.3c0,2.1,0.6,4.1,1.7,5.8
			c1.1,1.7,2.7,3.1,4.7,4.2c2,1,4.3,1.5,6.8,1.5c2,0,4-0.2,5.8-0.7c1.8-0.5,3.3-1,4.6-1.6c1.2-0.6,2.5-1.3,3.8-2.1V406.4
			L875.6,406.4z"/>
		<polygon class="st1" points="915.6,409.6 884,409.6 884,367.8 915,367.8 915,376.1 896.7,376.1 896.7,383.8 914.2,383.8 
			914.2,392.2 896.7,392.2 896.7,401.2 915.6,401.2 915.6,409.6 		"/>
		<polygon class="st1" points="389.9,313.5 374.6,313.5 374.6,345.1 362,345.1 362,313.5 346.7,313.5 346.7,303.4 389.9,303.4 
			389.9,313.5 		"/>
		<polygon class="st1" points="431.8,345.1 400.3,345.1 400.3,303.4 431.3,303.4 431.3,311.8 412.9,311.8 412.9,319.4 430.4,319.4 
			430.4,327.8 412.9,327.8 412.9,336.7 431.8,336.7 431.8,345.1 		"/>
		<path class="st1" d="M490.5,345.1h-16.2l-4.4-5.2c-0.1-0.2-1-1.3-2.6-3.2c-1.6-1.9-2.7-3.3-3.2-4c-2.4,3.3-4.4,5.8-5.9,7.7
			l-3.8,4.7h-15.9l17.7-21.7l-16.9-20h16.1l2.9,3.5c1.7,2,3.6,4.6,5.9,7.6c2.2-3.2,3.9-5.6,5.2-7.1l3.3-3.9h15.8l-16.2,20
			L490.5,345.1L490.5,345.1z"/>
		<path class="st1" d="M525.8,329.4l-6.1-15.3l-6.2,15.3H525.8L525.8,329.4z M545,345.1h-12.9l-3.4-8.5h-18.2l-3.5,8.5h-12.9
			l18.5-41.8h13.9L545,345.1L545,345.1z"/>
		<path class="st1" d="M582.8,333c0,2.6-0.7,4.9-2,6.8c-1.3,1.9-3.2,3.4-5.6,4.4c-2.4,1-5.1,1.5-8.2,1.5c-0.9,0-1.9-0.1-3.2-0.2
			c-1.3-0.1-2.9-0.4-5-0.9c-2.1-0.5-4.2-1.3-6.5-2.2v-10.2c2.1,1.3,4.2,2.4,6.2,3.2c2,0.9,4.2,1.3,6.6,1.3c2.1,0,3.5-0.4,4.2-1.1
			c0.6-0.7,1-1.4,1-2c0-1.1-0.6-2.1-1.6-2.8c-1.1-0.8-2.7-1.6-4.7-2.4c-2.3-1-4.3-2-6-3.1c-1.7-1.1-3.1-2.6-4.2-4.3
			c-1.1-1.7-1.6-3.7-1.6-6.1c0-2.3,0.6-4.3,1.7-6.1c1.1-1.8,2.8-3.3,5.1-4.4c2.3-1.1,5-1.6,8.3-1.6c2.3,0,4.5,0.2,6.5,0.7
			c2,0.5,3.6,1,4.9,1.5c1.3,0.6,2.2,1,2.7,1.3v9.8c-1.7-1.2-3.6-2.3-5.7-3.3c-2.1-1-4.3-1.5-6.7-1.5c-1.6,0-2.7,0.3-3.4,0.9
			c-0.7,0.6-1.1,1.4-1.1,2.2c0,0.8,0.3,1.5,1.1,2.1c0.7,0.6,2,1.3,3.8,2.2c3.2,1.5,5.8,2.9,7.7,4.1c1.9,1.2,3.4,2.6,4.5,4.2
			C582.2,328.7,582.8,330.7,582.8,333"/>
		<path class="st1" d="M642.4,329.4l-6.1-15.3l-6.2,15.3H642.4L642.4,329.4z M661.6,345.1h-12.9l-3.4-8.5h-18.2l-3.5,8.5h-12.9
			l18.5-41.8h13.9L661.6,345.1L661.6,345.1z"/>
		<polygon class="st1" points="715.6,345.1 704.4,345.1 682.7,321.9 682.7,345.1 670.2,345.1 670.2,303.4 681.4,303.4 703,326.5 
			703,303.4 715.6,303.4 715.6,345.1 		"/>
		<path class="st1" d="M755.1,329.4l-6.1-15.3l-6.2,15.3H755.1L755.1,329.4z M774.3,345.1h-12.9l-3.4-8.5h-18.2l-3.5,8.5h-12.9
			l18.5-41.8h13.9L774.3,345.1L774.3,345.1z"/>
		<polygon class="st1" points="814.6,345.1 782.9,345.1 782.9,303.4 795.5,303.4 795.5,335.1 814.6,335.1 814.6,345.1 		"/>
		<path class="st1" d="M853.4,324.2c0-1.6-0.2-3-0.7-4.3c-0.5-1.3-1.2-2.4-2.1-3.4c-0.9-0.9-2.1-1.7-3.4-2.2
			c-1.3-0.5-2.9-0.8-4.7-0.8c-3.4,0-6,1-8,3c-1.9,2-2.9,4.5-2.9,7.7c0,3.2,1,5.8,2.9,7.8c1.9,2,4.6,3,7.9,3c2.3,0,4.3-0.5,5.9-1.4
			c1.6-0.9,2.9-2.2,3.7-3.8C853,328.2,853.4,326.3,853.4,324.2 M866.3,324.2c0,3.9-0.9,7.5-2.7,10.8c-1.8,3.3-4.5,5.9-8,7.8
			c-3.6,1.9-7.9,2.9-13,2.9c-5.2,0-9.5-1-13.1-3c-3.6-2-6.2-4.7-8-7.9c-1.7-3.3-2.6-6.8-2.6-10.5c0-3.8,0.9-7.3,2.6-10.5
			c1.7-3.3,4.4-5.9,8-7.9c3.6-2,8-3,13.1-3c3.9,0,7.3,0.6,10.3,1.7c3,1.1,5.5,2.7,7.5,4.7c1.9,2,3.4,4.2,4.4,6.8
			C865.8,318.6,866.3,321.4,866.3,324.2"/>
		<path class="st1" d="M916.5,342.2c-0.9,0.3-1.7,0.6-2.3,0.8l-1.9,0.6c-0.6,0.2-1.5,0.4-2.6,0.7c-1.9,0.4-3.8,0.8-5.7,1
			c-1.9,0.2-3.9,0.3-6,0.3c-4.3,0-8.2-0.8-11.8-2.3c-3.6-1.5-6.5-3.9-8.6-7.2c-2.2-3.3-3.2-7.3-3.2-12c0-3,0.6-6,1.7-9
			c1.1-2.9,2.8-5.3,5.1-7.1c1.9-1.5,3.8-2.6,5.7-3.4c1.9-0.8,3.8-1.3,5.7-1.6c1.8-0.3,3.9-0.4,6.1-0.4c3.7,0,6.7,0.3,9.1,0.8
			c2.4,0.6,5,1.3,7.9,2.2v9.9c-1.9-1.1-3.9-2-6-2.8c-2.1-0.7-4.7-1.1-7.9-1.1c-3.6,0-6.5,0.7-8.7,2.1c-2.2,1.4-3.7,3-4.5,4.9
			c-0.8,1.9-1.3,3.7-1.3,5.5c0,2.1,0.5,4.1,1.5,5.8c1,1.8,2.5,3.2,4.5,4.3c2,1.1,4.4,1.6,7.2,1.6c1.6,0,3.3-0.2,5.1-0.6v-4.9h-5.7
			v-8.4h16.7V342.2L916.5,342.2z"/>
		<path class="st1" d="M422,196.7h66.3L455.8,135L422,196.7L422,196.7z M354.3,257.2l85.7-151.4h34l86.9,151.4h-39.6L503.1,224h-96
			l-17.6,33.2H354.3L354.3,257.2z"/>
	</g>
</g>
</svg>
