<?xml version="1.0" encoding="UTF-8" standalone="no"?>
<svg
   xmlns:dc="http://purl.org/dc/elements/1.1/"
   xmlns:cc="http://creativecommons.org/ns#"
   xmlns:rdf="http://www.w3.org/1999/02/22-rdf-syntax-ns#"
   xmlns:svg="http://www.w3.org/2000/svg"
   xmlns="http://www.w3.org/2000/svg"
   xmlns:sodipodi="http://sodipodi.sourceforge.net/DTD/sodipodi-0.dtd"
   xmlns:inkscape="http://www.inkscape.org/namespaces/inkscape"
   viewBox="0 0 300 110.71"
   height="110.71"
   width="300"
   xml:space="preserve"
   version="1.1"
   id="svg2"
   inkscape:version="0.48.5 r10040"
   sodipodi:docname="UT_Dallas_tex_rev.svg"><sodipodi:namedview
     pagecolor="#ffffff"
     bordercolor="#666666"
     borderopacity="1"
     objecttolerance="10"
     gridtolerance="10"
     guidetolerance="10"
     inkscape:pageopacity="0"
     inkscape:pageshadow="2"
     inkscape:window-width="1290"
     inkscape:window-height="588"
     id="namedview3183"
     showgrid="false"
     inkscape:zoom="0.55100925"
     inkscape:cx="274.95001"
     inkscape:cy="101.4625"
     inkscape:window-x="1036"
     inkscape:window-y="687"
     inkscape:window-maximized="0"
     inkscape:current-layer="svg2" /><metadata
     id="metadata8"><rdf:RDF><cc:Work
         rdf:about=""><dc:format>image/svg+xml</dc:format><dc:type
           rdf:resource="http://purl.org/dc/dcmitype/StillImage" /><dc:title></dc:title></cc:Work></rdf:RDF></metadata><defs
     id="defs6" /><g
     transform="matrix(0.68194683,0,0,-0.68194608,0,110.71012)"
     id="g10"><g
       transform="scale(0.1,0.1)"
       id="g12"><path
         id="path14"
         style="fill:#ffffff;fill-opacity:1;fill-rule:nonzero;stroke:none"
         d="m 3573.6,708.898 -20.27,0 c -20.38,-53.183 -44.63,-88.949 -72.7,-107.308 -28.11,-18.371 -62.87,-27.551 -104.28,-27.551 -23.06,0 -38.57,2.481 -46.52,7.41 -7.93,4.949 -11.91,15.082 -11.91,30.391 l 0,326.269 c 0,27.207 4.66,44.25 14.02,51.172 9.35,6.914 28.12,10.819 56.33,11.709 l 0,17.38 -239.98,0 0,-17.38 c 19.53,-1.123 33.02,-3.814 40.48,-8.076 12.74,-6.961 19.11,-20.543 19.11,-40.742 l 0,-333.774 c 0,-20.207 -6.7,-33.91 -20.08,-41.078 -7.91,-4.269 -21.06,-6.75 -39.51,-7.422 l 0,-17.378 397.16,0 28.15,156.378 z m -1179.24,6.622 62.44,158.878 4.85,0 65.6,-158.878 -132.89,0 z m 739.55,-6.622 c -20.37,-53.183 -44.63,-88.949 -72.71,-107.308 -28.09,-18.371 -62.86,-27.551 -104.26,-27.551 -23.07,0 -38.58,2.481 -46.52,7.41 -7.93,4.949 -11.92,15.082 -11.92,30.391 l 0,326.269 c 0,27.207 4.67,44.25 14.02,51.172 9.38,6.914 28.13,10.819 56.33,11.709 l 0,17.38 -239.98,0 0,-17.38 c 19.53,-1.123 33.03,-3.814 40.49,-8.076 12.73,-6.961 19.1,-20.543 19.1,-40.742 l 0,-333.774 c 0,-20.207 -6.72,-33.91 -20.08,-41.078 -7.42,-4.019 -19.7,-6.39 -36.48,-7.23 -12.67,1.082 -22.68,6.691 -30.02,16.879 -8.5,11.832 -21.37,38.133 -38.59,78.933 l -153.42,361.568 -19.83,0 -152.24,-376.775 c -12.13,-29.965 -21.43,-49.367 -27.91,-58.144 -10.12,-13.961 -23.46,-21.52 -40.06,-22.653 l 0,-17.378 140.66,0 0,17.378 c -15.74,0.231 -27.52,1.582 -35.39,4.063 -13.24,4.5 -19.86,11.711 -19.86,21.641 0,8.109 3.03,21.07 9.08,38.894 2.97,8.32 9.61,26.238 19.94,53.719 l 153.67,0 17.76,-41.914 c 3.85,-9.258 6.91,-17.149 9.2,-23.68 3.57,-11.051 5.37,-19.269 5.37,-24.672 0,-11.949 -3.54,-19.39 -10.57,-22.301 -7.05,-2.929 -21.76,-4.847 -44.12,-5.75 l 0,-17.378 610.47,0 28.14,156.378 -20.27,0 z m 1265.26,-21.921 c 0,37.156 -12.6,68.718 -37.76,94.695 -13.46,13.879 -31.52,26.523 -54.18,37.961 l -50.84,25.566 c -42.48,21.278 -69.78,37.43 -81.93,48.426 -12.4,10.75 -18.56,27 -18.56,48.75 0,18.156 6.6,33.559 19.89,46.23 13.28,12.675 31.32,19.005 54.14,19.005 32.48,0 60.06,-12.645 82.77,-37.907 22.68,-25.258 38.55,-55.383 47.56,-90.344 l 19.04,0 0,149.761 -20.7,0 c -1.76,-6.84 -4.06,-12.35 -6.95,-16.51 -2.86,-4.16 -8.03,-6.24 -15.51,-6.24 -3.3,0 -16.56,3.79 -39.81,11.38 -23.26,7.57 -47.3,11.37 -72.2,11.37 -48.91,0 -85.18,-14.57 -108.87,-43.706 -23.67,-29.141 -35.51,-60.527 -35.51,-94.141 0,-31.621 8.95,-58.175 26.84,-79.687 17.85,-21.543 48.47,-43.281 91.85,-65.234 l 43.69,-22.2 c 27.15,-13.672 45.2,-24.785 54.09,-33.3 13.43,-13.008 20.19,-29.805 20.19,-50.45 0,-17.711 -6.44,-34.562 -19.32,-50.601 -12.89,-16.031 -34.59,-24.051 -65.11,-24.051 -31.45,0 -59.3,11.691 -83.64,35.07 -24.33,23.352 -41.95,60.766 -52.87,112.231 l -19.86,0 0,-170.449 19.86,0 c 2,7.257 4.3,12.859 6.94,16.82 2.63,3.957 7.5,5.906 14.53,5.906 1.97,0 4.37,-0.25 7.26,-0.797 2.86,-0.531 5.82,-1.211 8.91,-2.062 l 13.2,-4.797 c 13.64,-5.152 27.44,-8.942 41.41,-11.391 14,-2.453 27.79,-3.679 41.45,-3.679 59.39,0 102.57,15.378 129.55,46.16 26.95,30.777 40.45,63.515 40.45,98.215 z m -695.3,28.543 62.4,158.878 4.85,0 65.62,-158.878 -132.87,0 z m 165.3,-139.872 c -7.04,-2.929 -21.74,-4.847 -44.11,-5.75 l 0,-17.378 222.56,0 0,17.378 c -15.66,-0.429 -27.73,5.25 -36.25,17.071 -8.51,11.832 -21.37,38.133 -38.61,78.933 l -153.4,361.568 -19.82,0 -152.25,-376.775 c -12.13,-29.965 -21.45,-49.367 -27.93,-58.144 -10.12,-13.961 -23.46,-21.52 -40.06,-22.653 l 0,-17.378 140.69,0 0,17.378 c -15.75,0.231 -27.54,1.582 -35.41,4.063 -13.23,4.5 -19.85,11.711 -19.85,21.641 0,8.109 3.03,21.07 9.08,38.894 2.97,8.32 9.61,26.238 19.91,53.719 l 153.71,0 17.73,-41.914 c 3.85,-9.258 6.93,-17.149 9.22,-23.68 3.55,-11.051 5.37,-19.269 5.37,-24.672 0,-11.949 -3.53,-19.39 -10.58,-22.301 z M 2153.99,628.93 C 2123.74,595.648 2085.1,579 2038.05,579 c -17.32,0 -28.63,3.621 -33.94,10.891 -5.3,7.23 -8.34,19.019 -9.11,35.347 l 0,391.582 c 0,16.31 2.07,27.31 6.2,33.02 6.22,8.8 19.65,13.21 40.34,13.21 62.56,0 107.02,-32.51 133.39,-97.499 16.31,-40.422 24.45,-88.731 24.45,-144.926 0,-94.527 -15.13,-158.414 -45.39,-191.695 z m 113.26,382.23 c -51.5,52.24 -126.32,78.36 -224.42,78.36 l -243.1,0 0,-19.85 c 21.16,-1.83 36.06,-5.11 44.68,-9.82 14.89,-8.1 22.34,-22.47 22.34,-43.14 l 0,-391.374 c 0,-21.445 -7.85,-36.234 -23.52,-44.324 -8.89,-4.453 -23.39,-7.321 -43.5,-8.633 l 0,-19.859 251.24,0 c 90.86,0 162.82,28.082 215.89,84.21 47.11,49.903 70.68,110.832 70.68,182.735 0,80.195 -23.43,144.094 -70.29,191.695 z m -715.7,-82.152 c -7.5,57.43 -28.94,96.282 -64.35,116.542 -19.9,11.18 -49.6,17.28 -89.13,18.33 l 0,-418.583 c 0,-29.246 5.11,-48.668 15.36,-58.238 10.26,-9.59 31.61,-14.368 64.07,-14.368 l 0,-20.171 -283.81,0 0,20.171 c 31.26,0 52.05,4.86 62.34,14.559 10.29,9.691 15.44,29.059 15.44,58.047 l 0,418.583 c -38.76,-1.05 -68.49,-7.15 -89.15,-18.33 -37.98,-20.78 -59.43,-59.636 -64.34,-116.542 l -22.76,0 0.78,160.512 477.53,0 0.78,-160.512 -22.76,0 z m -480.54,140.662 c -25.19,-4.92 -41.82,-10.91 -49.92,-18.01 -8.09,-7.11 -12.13,-23.44 -12.13,-49.01 l 0,-254.259 c 0,-67.567 -16.284,-119.715 -48.839,-156.461 -32.555,-36.75 -83.699,-55.129 -153.449,-55.129 -26.875,0 -51.184,2.429 -73.055,7.179 0.059,-0.058 0.113,-0.121 0.172,-0.179 -43.019,9.301 -76.434,27.711 -100.133,55.32 0.051,0 0.094,0 0.137,0 -5.234,6.098 -10.008,12.609 -14.301,19.59 -17.828,28.988 -26.734,66.379 -26.734,112.199 l 0,265.949 c 0,29.931 -3.957,48.791 -11.867,56.551 -7.918,7.73 -25.758,13.16 -53.496,16.26 l 0,19.85 268.078,0 0,-19.85 c -30.672,-1.03 -51.172,-5.82 -61.489,-14.34 -10.316,-8.52 -15.461,-28.02 -15.461,-58.471 l 0,-266.132 c 0,-40.411 4.789,-71.633 14.352,-93.653 17.324,-40.926 50.563,-61.383 99.719,-61.383 61.035,0 102.289,22.649 123.761,67.954 11.899,24.824 17.844,59.628 17.844,104.406 l 0,243.011 c 0,28.538 -5.219,48.188 -15.668,58.958 -10.445,10.75 -30.871,17.31 -61.281,19.65 l 0,19.85 173.76,0 0,-19.85 z m 658.62,-244.373 c -9.65,30.918 -42.51,106.289 -61.83,123.68 -19.33,17.394 -13.53,15.461 -13.53,15.461 l -1.94,237.702 c 0,0 -71.5,7.73 -96.62,21.26 -25.12,13.53 -67.64,32.85 -94.7,28.99 -27.05,-3.87 -90.82,-32.85 -129.48,-25.13 -38.65,7.74 -57.98,5.8 -83.1,3.87 -25.12,-1.93 -63.77,-9.66 -88.9,-1.93 -25.12,7.73 -71.5,38.65 -94.7,40.58 -23.18,1.93 -46.38,5.8 -71.494,17.4 -25.129,11.59 -30.93,32.85 -54.113,28.98 -23.192,-3.86 -67.637,25.13 -67.637,25.13 l 0,280.22 -392.313,1.93 0,-680.252 -479.273,0 c 0,0 3.86328,-23.204 15.4609,-30.93 11.5899,-7.723 65.7071,-61.844 108.2231,-104.356 42.511,-42.519 104.359,-79.238 104.359,-79.238 0,0 9.66,-48.309 15.457,-71.504 5.801,-23.191 38.652,-98.558 61.848,-119.82 23.183,-21.25 54.105,-19.32 77.297,-34.789 23.191,-15.449 46.382,-28.981 65.71,-32.852 19.321,-3.871 36.711,30.922 48.309,46.391 11.594,15.461 -3.859,52.172 23.191,59.898 27.059,7.731 36.692,15.571 44.454,17.391 8.679,2.043 20.218,3.66 32.816,4.68 19.816,-30.18 48.016,-53.5 82.332,-68.399 25.895,-11.32 55.105,-18.14 87.406,-21.148 23.746,-34.602 62.485,-121.723 77.664,-147.024 17.391,-29 63.774,-104.379 81.164,-108.238 17.395,-3.859 17.395,-44.441 27.059,-63.77 9.656,-19.32 40.586,-90.8316 44.453,-100.4917 3.857,-9.6602 5.787,-15.4571 5.787,-15.4571 0,0 38.66,-3.871 56.05,-13.5429 17.39,-9.6602 46.38,-17.3789 73.44,-25.1094 27.05,-7.7383 92.76,-36.71874 119.81,-34.7890562 27.06,1.9218762 50.25,5.8007762 38.66,17.3906562 -11.6,11.5976 -38.66,104.3595 -34.79,146.8715 3.86,42.539 28.99,173.929 54.11,181.668 25.13,7.73 96.63,61.832 137.21,83.101 40.59,21.258 137.22,121.75 166.21,135.289 28.99,13.512 79.23,32.852 90.83,46.36 11.59,13.539 27.05,54.125 21.25,85.042 -5.79,30.93 13.53,98.563 3.86,129.485"
         inkscape:connector-curvature="0" /></g></g></svg>