<?xml version="1.0" encoding="UTF-8" standalone="no"?>
<svg
   xmlns:dc="http://purl.org/dc/elements/1.1/"
   xmlns:cc="http://creativecommons.org/ns#"
   xmlns:rdf="http://www.w3.org/1999/02/22-rdf-syntax-ns#"
   xmlns:svg="http://www.w3.org/2000/svg"
   xmlns="http://www.w3.org/2000/svg"
   xmlns:sodipodi="http://sodipodi.sourceforge.net/DTD/sodipodi-0.dtd"
   xmlns:inkscape="http://www.inkscape.org/namespaces/inkscape"
   viewBox="0 0 300 110.71"
   height="110.71"
   width="300"
   xml:space="preserve"
   version="1.1"
   id="svg2"
   inkscape:version="0.48.5 r10040"
   sodipodi:docname="UT_Dallas_tex_orange_resized.svg"><sodipodi:namedview
     pagecolor="#ffffff"
     bordercolor="#666666"
     borderopacity="1"
     objecttolerance="10"
     gridtolerance="10"
     guidetolerance="10"
     inkscape:pageopacity="0"
     inkscape:pageshadow="2"
     inkscape:window-width="1512"
     inkscape:window-height="915"
     id="namedview3037"
     showgrid="false"
     inkscape:zoom="2.8284271"
     inkscape:cx="110.44291"
     inkscape:cy="48.212251"
     inkscape:window-x="796"
     inkscape:window-y="712"
     inkscape:window-maximized="0"
     inkscape:current-layer="svg2" /><metadata
     id="metadata8"><rdf:RDF><cc:Work
         rdf:about=""><dc:format>image/svg+xml</dc:format><dc:type
           rdf:resource="http://purl.org/dc/dcmitype/StillImage" /><dc:title></dc:title></cc:Work></rdf:RDF></metadata><defs
     id="defs6" /><g
     transform="matrix(0.68194683,0,0,-0.68194683,0,110.71012)"
     id="g10"><g
       transform="scale(0.1,0.1)"
       id="g12"><path
         id="path14"
         style="fill:#e45e16;fill-opacity:1;fill-rule:nonzero;stroke:none"
         d="m 3573.6,708.898 -20.27,0 c -20.38,-53.183 -44.63,-88.949 -72.7,-107.308 -28.11,-18.371 -62.87,-27.551 -104.28,-27.551 -23.06,0 -38.57,2.481 -46.52,7.41 -7.93,4.949 -11.91,15.082 -11.91,30.391 l 0,326.269 c 0,27.207 4.66,44.25 14.02,51.172 9.35,6.914 28.12,10.819 56.33,11.709 l 0,17.38 -239.98,0 0,-17.38 c 19.53,-1.123 33.02,-3.814 40.48,-8.076 12.74,-6.961 19.11,-20.543 19.11,-40.742 l 0,-333.774 c 0,-20.207 -6.7,-33.91 -20.08,-41.078 -7.91,-4.269 -21.06,-6.75 -39.51,-7.422 l 0,-17.378 397.16,0 28.15,156.378 z m -1179.24,6.622 62.44,158.878 4.85,0 65.6,-158.878 -132.89,0 z m 739.55,-6.622 c -20.37,-53.183 -44.63,-88.949 -72.71,-107.308 -28.09,-18.371 -62.86,-27.551 -104.26,-27.551 -23.07,0 -38.58,2.481 -46.52,7.41 -7.93,4.949 -11.92,15.082 -11.92,30.391 l 0,326.269 c 0,27.207 4.67,44.25 14.02,51.172 9.38,6.914 28.13,10.819 56.33,11.709 l 0,17.38 -239.98,0 0,-17.38 c 19.53,-1.123 33.03,-3.814 40.49,-8.076 12.73,-6.961 19.1,-20.543 19.1,-40.742 l 0,-333.774 c 0,-20.207 -6.72,-33.91 -20.08,-41.078 -7.42,-4.019 -19.7,-6.39 -36.48,-7.23 -12.67,1.082 -22.68,6.691 -30.02,16.879 -8.5,11.832 -21.37,38.133 -38.59,78.933 l -153.42,361.568 -19.83,0 -152.24,-376.775 c -12.13,-29.965 -21.43,-49.367 -27.91,-58.144 -10.12,-13.961 -23.46,-21.52 -40.06,-22.653 l 0,-17.378 140.66,0 0,17.378 c -15.74,0.231 -27.52,1.582 -35.39,4.063 -13.24,4.5 -19.86,11.711 -19.86,21.641 0,8.109 3.03,21.07 9.08,38.894 2.97,8.32 9.61,26.238 19.94,53.719 l 153.67,0 17.76,-41.914 c 3.85,-9.258 6.91,-17.149 9.2,-23.68 3.57,-11.051 5.37,-19.269 5.37,-24.672 0,-11.949 -3.54,-19.39 -10.57,-22.301 -7.05,-2.929 -21.76,-4.847 -44.12,-5.75 l 0,-17.378 610.47,0 28.14,156.378 -20.27,0 z m 1265.26,-21.921 c 0,37.156 -12.6,68.718 -37.76,94.695 -13.46,13.879 -31.52,26.523 -54.18,37.961 l -50.84,25.566 c -42.48,21.278 -69.78,37.43 -81.93,48.426 -12.4,10.75 -18.56,27 -18.56,48.75 0,18.156 6.6,33.559 19.89,46.23 13.28,12.675 31.32,19.005 54.14,19.005 32.48,0 60.06,-12.645 82.77,-37.907 22.68,-25.258 38.55,-55.383 47.56,-90.344 l 19.04,0 0,149.761 -20.7,0 c -1.76,-6.84 -4.06,-12.35 -6.95,-16.51 -2.86,-4.16 -8.03,-6.24 -15.51,-6.24 -3.3,0 -16.56,3.79 -39.81,11.38 -23.26,7.57 -47.3,11.37 -72.2,11.37 -48.91,0 -85.18,-14.57 -108.87,-43.706 -23.67,-29.141 -35.51,-60.527 -35.51,-94.141 0,-31.621 8.95,-58.175 26.84,-79.687 17.85,-21.543 48.47,-43.281 91.85,-65.234 l 43.69,-22.2 c 27.15,-13.672 45.2,-24.785 54.09,-33.3 13.43,-13.008 20.19,-29.805 20.19,-50.45 0,-17.711 -6.44,-34.562 -19.32,-50.601 -12.89,-16.031 -34.59,-24.051 -65.11,-24.051 -31.45,0 -59.3,11.691 -83.64,35.07 -24.33,23.352 -41.95,60.766 -52.87,112.231 l -19.86,0 0,-170.449 19.86,0 c 2,7.257 4.3,12.859 6.94,16.82 2.63,3.957 7.5,5.906 14.53,5.906 1.97,0 4.37,-0.25 7.26,-0.797 2.86,-0.531 5.82,-1.211 8.91,-2.062 l 13.2,-4.797 c 13.64,-5.152 27.44,-8.942 41.41,-11.391 14,-2.453 27.79,-3.679 41.45,-3.679 59.39,0 102.57,15.378 129.55,46.16 26.95,30.777 40.45,63.515 40.45,98.215 z m -695.3,28.543 62.4,158.878 4.85,0 65.62,-158.878 -132.87,0 z m 165.3,-139.872 c -7.04,-2.929 -21.74,-4.847 -44.11,-5.75 l 0,-17.378 222.56,0 0,17.378 c -15.66,-0.429 -27.73,5.25 -36.25,17.071 -8.51,11.832 -21.37,38.133 -38.61,78.933 l -153.4,361.568 -19.82,0 -152.25,-376.775 c -12.13,-29.965 -21.45,-49.367 -27.93,-58.144 -10.12,-13.961 -23.46,-21.52 -40.06,-22.653 l 0,-17.378 140.69,0 0,17.378 c -15.75,0.231 -27.54,1.582 -35.41,4.063 -13.23,4.5 -19.85,11.711 -19.85,21.641 0,8.109 3.03,21.07 9.08,38.894 2.97,8.32 9.61,26.238 19.91,53.719 l 153.71,0 17.73,-41.914 c 3.85,-9.258 6.93,-17.149 9.22,-23.68 3.55,-11.051 5.37,-19.269 5.37,-24.672 0,-11.949 -3.53,-19.39 -10.58,-22.301 z M 2153.99,628.93 C 2123.74,595.648 2085.1,579 2038.05,579 c -17.32,0 -28.63,3.621 -33.94,10.891 -5.3,7.23 -8.34,19.019 -9.11,35.347 l 0,391.582 c 0,16.31 2.07,27.31 6.2,33.02 6.22,8.8 19.65,13.21 40.34,13.21 62.56,0 107.02,-32.51 133.39,-97.499 16.31,-40.422 24.45,-88.731 24.45,-144.926 0,-94.527 -15.13,-158.414 -45.39,-191.695 z m 113.26,382.23 c -51.5,52.24 -126.32,78.36 -224.42,78.36 l -243.1,0 0,-19.85 c 21.16,-1.83 36.06,-5.11 44.68,-9.82 14.89,-8.1 22.34,-22.47 22.34,-43.14 l 0,-391.374 c 0,-21.445 -7.85,-36.234 -23.52,-44.324 -8.89,-4.453 -23.39,-7.321 -43.5,-8.633 l 0,-19.859 251.24,0 c 90.86,0 162.82,28.082 215.89,84.21 47.11,49.903 70.68,110.832 70.68,182.735 0,80.195 -23.43,144.094 -70.29,191.695 z m -715.7,-82.152 c -7.5,57.43 -28.94,96.282 -64.35,116.542 -19.9,11.18 -49.6,17.28 -89.13,18.33 l 0,-418.583 c 0,-29.246 5.11,-48.668 15.36,-58.238 10.26,-9.59 31.61,-14.368 64.07,-14.368 l 0,-20.171 -283.81,0 0,20.171 c 31.26,0 52.05,4.86 62.34,14.559 10.29,9.691 15.44,29.059 15.44,58.047 l 0,418.583 c -38.76,-1.05 -68.49,-7.15 -89.15,-18.33 -37.98,-20.78 -59.43,-59.636 -64.34,-116.542 l -22.76,0 0.78,160.512 477.53,0 0.78,-160.512 -22.76,0 z m -480.54,140.662 c -25.19,-4.92 -41.82,-10.91 -49.92,-18.01 -8.09,-7.11 -12.13,-23.44 -12.13,-49.01 l 0,-254.259 c 0,-67.567 -16.284,-119.715 -48.839,-156.461 -32.555,-36.75 -83.699,-55.129 -153.449,-55.129 -26.875,0 -51.184,2.429 -73.055,7.179 0.059,-0.058 0.113,-0.121 0.172,-0.179 -43.019,9.301 -76.434,27.711 -100.133,55.32 0.051,0 0.094,0 0.137,0 -5.234,6.098 -10.008,12.609 -14.301,19.59 -17.828,28.988 -26.734,66.379 -26.734,112.199 l 0,265.949 c 0,29.931 -3.957,48.791 -11.867,56.551 -7.918,7.73 -25.758,13.16 -53.496,16.26 l 0,19.85 268.078,0 0,-19.85 c -30.672,-1.03 -51.172,-5.82 -61.489,-14.34 -10.316,-8.52 -15.461,-28.02 -15.461,-58.471 l 0,-266.132 c 0,-40.411 4.789,-71.633 14.352,-93.653 17.324,-40.926 50.563,-61.383 99.719,-61.383 61.035,0 102.289,22.649 123.761,67.954 11.899,24.824 17.844,59.628 17.844,104.406 l 0,243.011 c 0,28.538 -5.219,48.188 -15.668,58.958 -10.445,10.75 -30.871,17.31 -61.281,19.65 l 0,19.85 173.76,0 0,-19.85 z m 658.62,-244.373 c -9.65,30.918 -42.51,106.289 -61.83,123.68 -19.33,17.394 -13.53,15.461 -13.53,15.461 l -1.94,237.702 c 0,0 -71.5,7.73 -96.62,21.26 -25.12,13.53 -67.64,32.85 -94.7,28.99 -27.05,-3.87 -90.82,-32.85 -129.48,-25.13 -38.65,7.74 -57.98,5.8 -83.1,3.87 -25.12,-1.93 -63.77,-9.66 -88.9,-1.93 -25.12,7.73 -71.5,38.65 -94.7,40.58 -23.18,1.93 -46.38,5.8 -71.494,17.4 -25.129,11.59 -30.93,32.85 -54.113,28.98 -23.192,-3.86 -67.637,25.13 -67.637,25.13 l 0,280.22 -392.313,1.93 0,-680.252 -479.273,0 c 0,0 3.86328,-23.204 15.4609,-30.93 11.5899,-7.723 65.7071,-61.844 108.2231,-104.356 42.511,-42.519 104.359,-79.238 104.359,-79.238 0,0 9.66,-48.309 15.457,-71.504 5.801,-23.191 38.652,-98.558 61.848,-119.82 23.183,-21.25 54.105,-19.32 77.297,-34.789 23.191,-15.449 46.382,-28.981 65.71,-32.852 19.321,-3.871 36.711,30.922 48.309,46.391 11.594,15.461 -3.859,52.172 23.191,59.898 27.059,7.731 36.692,15.571 44.454,17.391 8.679,2.043 20.218,3.66 32.816,4.68 19.816,-30.18 48.016,-53.5 82.332,-68.399 25.895,-11.32 55.105,-18.14 87.406,-21.148 23.746,-34.602 62.485,-121.723 77.664,-147.024 17.391,-29 63.774,-104.379 81.164,-108.238 17.395,-3.859 17.395,-44.441 27.059,-63.77 9.656,-19.32 40.586,-90.8316 44.453,-100.4917 3.857,-9.6602 5.787,-15.4571 5.787,-15.4571 0,0 38.66,-3.871 56.05,-13.5429 17.39,-9.6602 46.38,-17.3789 73.44,-25.1094 27.05,-7.7383 92.76,-36.71874 119.81,-34.7890562 27.06,1.9218762 50.25,5.8007762 38.66,17.3906562 -11.6,11.5976 -38.66,104.3595 -34.79,146.8715 3.86,42.539 28.99,173.929 54.11,181.668 25.13,7.73 96.63,61.832 137.21,83.101 40.59,21.258 137.22,121.75 166.21,135.289 28.99,13.512 79.23,32.852 90.83,46.36 11.59,13.539 27.05,54.125 21.25,85.042 -5.79,30.93 13.53,98.563 3.86,129.485"
         inkscape:connector-curvature="0" /></g></g><path
     style="fill:#c75b12;fill-opacity:1"
     d="m 76.172674,107.82994 -7.718372,-2.59166 -1.40612,-3.14459 c -0.773367,-1.72952 -1.78758,-4.296708 -2.253804,-5.704858 -0.619595,-1.871383 -1.179525,-2.851635 -2.080984,-3.643128 -1.718725,-1.509061 -4.584972,-5.988254 -7.601995,-11.879935 l -2.561364,-5.001854 -1.578722,-0.236746 c -3.824885,-0.573577 -7.783948,-2.614478 -9.35691,-4.823497 -0.707217,-0.993199 -0.90998,-1.076337 -2.143814,-0.87904 -0.749498,0.119851 -2.215397,0.595002 -3.257556,1.055894 -1.823218,0.806314 -1.901596,0.897966 -2.073702,2.424888 -0.186285,1.652714 -1.911518,4.598708 -2.919645,4.985563 -0.615939,0.236357 -1.745988,-0.200486 -4.073958,-1.574868 C 26.270684,76.2995 24.728912,75.609293 23.71957,75.282316 22.710228,74.955336 21.408618,74.201164 20.827103,73.606378 19.29434,72.03863 17.290175,67.68619 16.426114,64.048758 L 15.676182,60.891777 12.856964,58.916298 C 9.8812524,56.831164 0.26580636,47.641296 0.27202215,46.888365 0.27488756,46.541271 3.7660098,46.446424 16.539127,46.446424 l 16.263456,0 0,-23.157748 0,-23.15774694 13.258252,0 13.258252,0 0,9.65226714 0,9.6522678 1.600448,0.777557 c 0.880246,0.427657 2.03908,0.777558 2.575184,0.777558 0.536107,0 1.830229,0.551163 2.875832,1.224806 1.045602,0.673644 2.790324,1.407549 3.877165,1.6309 2.975937,0.611571 4.257349,1.033719 6.417323,2.114122 2.561367,1.281177 3.73893,1.456907 7.579563,1.13112 1.750089,-0.148454 4.216124,-0.144879 5.480077,0.0079 1.927163,0.233012 2.941759,0.122427 6.285879,-0.685127 4.492572,-1.084887 5.405652,-1.012773 9.581632,0.756744 1.24064,0.525704 3.25168,1.120864 4.46899,1.322578 2.18012,0.361258 2.21644,0.385924 2.42498,1.646745 0.11644,0.703996 0.21346,4.359457 0.2156,8.123246 0.004,6.820639 0.007,6.846801 0.90736,7.916965 1.08989,1.295257 2.4282,3.882639 3.55038,6.863992 0.799,2.122745 0.81844,2.409353 0.52847,7.790697 -0.40684,7.550395 -0.50643,7.744068 -5.1635,10.041468 -2.76889,1.365933 -4.46835,2.546479 -7.6137,5.288936 -2.22704,1.941776 -4.60601,3.903396 -5.286596,4.359155 -1.275277,0.85399 -8.7255,5.595385 -10.197731,6.489935 -1.066158,0.647816 -1.97269,2.72373 -2.870065,6.572328 -1.169339,5.014975 -1.258368,7.388767 -0.410281,10.939197 0.407579,1.70629 0.996755,3.59682 1.309275,4.20117 0.469264,0.90745 0.48545,1.15127 0.09294,1.40004 -1.20036,0.76076 -3.877993,0.21994 -11.375637,-2.2976 l 0,0 z M 57.816924,74.022312 c 5.920453,-0.769007 8.971166,-3.474716 10.562393,-9.367889 0.34661,-1.283681 0.482686,-4.575465 0.496913,-12.020815 0.0199,-10.417065 0.235572,-13.098517 1.098246,-13.654946 0.26485,-0.17083 1.078165,-0.475788 1.807368,-0.677688 1.073551,-0.297239 1.325826,-0.532674 1.325826,-1.237341 l 0,-0.870258 -6.010408,0 -6.010408,0 0,0.85579 c 0,0.683249 0.23167,0.901558 1.149049,1.082768 2.15139,0.424968 3.030034,0.943666 3.505202,2.069249 0.674594,1.597977 0.670083,21.896559 -0.0054,24.5351 -1.011559,3.951008 -3.648523,6.076027 -7.920332,6.382667 -4.06061,0.29148 -6.193905,-0.907006 -7.738718,-4.347611 -0.745492,-1.660357 -0.800611,-2.346212 -0.943616,-11.741352 -0.174249,-11.447698 0.04911,-15.063581 0.988528,-16.003001 0.349445,-0.349445 1.448162,-0.747143 2.44159,-0.883777 1.603333,-0.220515 1.806234,-0.343983 1.806234,-1.099127 l -7e-6,-0.850706 -9.369165,0 -9.369165,0 0,0.852806 c 0,0.719319 0.221211,0.890181 1.413216,1.091568 0.777266,0.131321 1.771635,0.528743 2.209709,0.883159 0.791681,0.640504 0.797726,0.719877 1.000673,13.138956 0.219733,13.4463 0.285024,13.94673 2.191826,16.799889 1.928174,2.885133 4.844608,4.448437 9.448032,5.064461 2.760128,0.369354 3.064965,0.369255 5.922458,-0.0018 l 0,-1.34e-4 z m 43.221466,-1.577538 c 0,-0.780405 -0.18729,-0.896551 -1.788198,-1.108916 -2.300702,-0.305202 -3.156199,-1.02719 -3.533363,-2.981954 -0.167474,-0.867988 -0.311431,-7.995879 -0.319898,-15.839762 l -0.0154,-14.261601 1.502602,0.221056 c 3.036077,0.446647 4.510395,1.009617 5.719705,2.18409 1.32973,1.291414 2.42336,3.440987 2.8163,5.535543 0.20492,1.092331 0.39281,1.313854 1.11434,1.313854 l 0.86787,0 0,-5.656854 0,-5.656855 -16.440234,0 -16.440233,0 0,5.680338 0,5.680337 0.964338,-0.111872 c 0.828528,-0.09612 0.999407,-0.31882 1.213343,-1.581327 0.344629,-2.033781 1.443205,-4.055441 2.897691,-5.332494 1.329891,-1.167663 2.648759,-1.676048 5.266065,-2.029927 l 1.679379,-0.227062 -0.0021,14.78252 c -0.0011,8.712994 -0.146385,15.302384 -0.353695,16.048676 -0.391864,1.410642 -1.18889,1.938229 -3.445031,2.280408 -1.289487,0.195572 -1.502602,0.348851 -1.502602,1.080703 l 0,0.852807 9.899495,0 9.899496,0 0,-0.871708 1.5e-4,0 z"
     id="path3760"
     inkscape:connector-curvature="0" /><path
     style="fill:#c75b12;fill-opacity:1"
     d="m 83.785944,109.89651 c -2.333269,-0.50303 -10.245886,-2.93044 -13.411953,-4.11448 -2.073749,-0.77554 -2.091788,-0.80456 -4.755866,-7.650693 -1.050057,-2.698429 -1.949083,-4.306676 -3.458696,-6.187184 -2.413122,-3.006 -3.995326,-5.559461 -7.200875,-11.62123 L 52.587332,75.83888 50.56152,75.403903 c -3.104488,-0.666586 -6.226687,-2.208216 -8.188342,-4.043116 -1.651671,-1.544947 -1.869941,-1.644575 -3.110202,-1.419644 -0.733627,0.133052 -2.147961,0.610236 -3.142966,1.060412 -1.606676,0.726924 -1.837533,0.970084 -2.063242,2.173219 -0.434402,2.315559 -2.191369,5.091455 -3.222571,5.091455 -0.857221,0 -9.25683,-4.176516 -10.045128,-4.994709 C 19.560703,71.996561 17.363778,67.089123 16.507486,63.707417 15.85129,61.115941 15.593506,60.600124 14.686969,60.064618 11.785691,58.350793 0.19592999,47.468974 0.71695838,46.947946 0.84261027,46.822293 8.113279,46.634259 16.874,46.530096 l 15.928583,-0.189395 0,-23.104885 0,-23.10488694 13.258252,0 13.258252,0 0,9.71363904 0,9.7136389 0.972272,0.502348 c 0.53475,0.276292 1.688218,0.686862 2.563262,0.912379 0.875045,0.225517 2.466035,0.865778 3.535534,1.422802 1.069499,0.557023 3.376898,1.4147 5.127557,1.905949 1.750655,0.491249 4.13714,1.331017 5.303301,1.866152 2.05249,0.941861 2.335085,0.975353 8.837802,1.047429 5.475471,0.06069 7.30279,-0.05029 9.882942,-0.600241 4.427347,-0.943671 5.526293,-0.86523 10.360403,0.739515 2.34308,0.777818 4.57428,1.414214 4.9582,1.414214 0.38393,0 0.86471,0.20082 1.06842,0.446267 0.21431,0.258229 0.47906,3.717748 0.62832,8.210385 l 0.25796,7.764118 1.24355,1.943978 c 0.68395,1.069188 1.79637,3.219648 2.47203,4.778801 l 1.22849,2.834822 -0.22562,5.307205 c -0.12409,2.918958 -0.39073,5.893597 -0.59254,6.610299 -0.44299,1.573238 -1.54829,2.547886 -5.10018,4.497273 -1.48227,0.813516 -4.68923,3.102767 -7.12659,5.08722 -2.43735,1.984453 -7.005971,5.278637 -10.152479,7.320408 -6.431737,4.173556 -6.626216,4.408061 -8.063234,9.722718 -1.17647,4.351037 -1.106693,9.689262 0.177201,13.556502 0.538638,1.62245 0.92794,2.99481 0.865117,3.04968 -0.466185,0.40718 -1.860614,0.40646 -3.754861,-0.002 l 0,-1.5e-4 z M 59.016439,73.866982 c 3.139441,-0.665423 4.875349,-1.604638 6.611763,-3.577306 2.743507,-3.116793 2.948412,-4.157233 3.264676,-16.577094 0.153245,-6.018009 0.38589,-11.721734 0.516987,-12.674938 0.229959,-1.671986 0.299354,-1.758444 1.968084,-2.451939 1.380859,-0.573856 1.729721,-0.887599 1.729721,-1.555586 l 0,-0.836744 -6.010408,0 -6.010408,0 0,0.858796 c 0,0.736285 0.276186,0.939087 1.936073,1.421627 1.240909,0.360741 2.097795,0.845799 2.386485,1.350914 0.340203,0.595246 0.450413,3.686186 0.450413,12.632119 0,13.412858 -0.111489,14.103288 -2.647284,16.394229 -1.659053,1.498854 -3.271189,1.985976 -6.581209,1.988575 -3.032484,0.0025 -4.352355,-0.730084 -5.93847,-3.295567 l -1.046833,-1.693209 -0.299343,-8.022837 c -0.278476,-7.463559 -0.165933,-13.966159 0.29655,-17.134503 0.215006,-1.472924 1.087184,-2.128405 3.412497,-2.564637 1.080382,-0.202681 1.313607,-0.396379 1.313607,-1.09097 l 0,-0.844537 -9.369165,0 -9.369165,0 0,0.837936 c 0,0.693477 0.278918,0.916028 1.617878,1.290912 0.889834,0.249138 1.830204,0.786886 2.089716,1.194996 0.35156,0.552876 0.560764,3.913072 0.820704,13.182122 0.338934,12.085887 0.373571,12.494053 1.216404,14.335045 0.477141,1.042219 1.357563,2.453059 1.95649,3.135198 2.967989,3.380352 9.696495,4.966527 15.684237,3.697398 l 0,0 z m 42.021951,-1.418364 c 0,-0.724484 -0.21904,-0.907519 -1.325827,-1.107913 C 97.790194,70.992649 96.458376,70.223091 96.086742,69.245622 95.90795,68.775364 95.650708,61.62242 95.515095,53.35019 l -0.246568,-15.040419 1.20555,0.21566 c 2.176917,0.389425 4.017633,0.915597 5.026403,1.436816 1.25525,0.648566 2.94107,3.28099 3.64308,5.688681 0.46103,1.581204 0.66841,1.856156 1.39999,1.856156 l 0.8588,0 0,-5.656854 0,-5.656855 -16.440234,0 -16.440233,0 0,5.680338 0,5.680337 0.905776,-0.111872 c 0.77518,-0.09574 1.021978,-0.458279 1.711707,-2.514425 1.346169,-4.013072 3.316982,-5.532252 8.311775,-6.40706 l 1.20654,-0.211315 -0.225804,15.160182 c -0.124196,8.338097 -0.375328,15.553454 -0.55808,16.034124 -0.337382,0.88738 -1.410332,1.464354 -3.485351,1.87424 -0.917379,0.18121 -1.149048,0.399518 -1.149048,1.082767 l 0,0.855791 9.899495,0 9.899497,0 0,-0.867864 z"
     id="path3770"
     inkscape:connector-curvature="0" /><path
     style="fill:#c75b12;fill-opacity:1"
     d="m 84.951708,110.18319 c -2.396494,-0.31926 -15.641668,-4.51995 -16.325423,-5.17759 -0.228533,-0.2198 -1.387326,-2.76143 -2.575089,-5.648055 -1.654743,-4.021528 -2.601594,-5.798452 -4.050488,-7.601398 -2.271449,-2.826504 -3.929127,-5.510762 -7.07356,-11.45414 l -2.364144,-4.468526 -2.01365,-0.414852 C 47.534205,74.79745 44.364839,73.223752 42.368822,71.35671 40.37815,69.494672 40.23115,69.481544 36.596939,70.841275 c -1.965467,0.735374 -2.036124,0.808185 -2.571513,2.649858 -0.587383,2.020526 -1.72948,3.943864 -2.700359,4.547514 -0.462847,0.287778 -1.574422,-0.08713 -5.045383,-1.701663 -2.448462,-1.138916 -4.871074,-2.483324 -5.383582,-2.987572 -1.251542,-1.23137 -3.404924,-5.901227 -4.389016,-9.518089 l -0.801131,-2.944418 -2.673148,-2.00533 C 9.7780304,56.439925 0.35206455,47.320708 0.70918936,46.959005 0.85039749,46.815986 8.1291779,46.619456 16.884257,46.522268 l 15.918326,-0.176706 0,-23.107316 0,-23.10731694 13.258252,0 13.258252,0 0,9.73528254 0,9.7352834 1.502602,0.63879 c 0.826431,0.351334 1.979298,0.756291 2.561929,0.899904 0.582632,0.143613 2.173622,0.784224 3.535534,1.42358 1.361913,0.639356 3.510351,1.438431 4.774304,1.775722 1.263953,0.337291 3.41179,1.095635 4.772971,1.685208 l 2.474874,1.071952 7.247844,-0.02288 c 5.17809,-0.01634 7.986432,-0.181449 9.834222,-0.578162 3.75158,-0.80545 5.282543,-0.698245 9.340763,0.654081 1.99606,0.665151 4.22016,1.31819 4.94244,1.451198 0.72228,0.133007 1.46902,0.429552 1.65944,0.658988 0.19041,0.229436 0.45998,3.911846 0.59904,8.183133 l 0.25284,7.765977 1.17121,1.767767 c 0.64417,0.972272 1.75594,3.118351 2.47062,4.769071 l 1.29941,3.0013 -0.22562,5.307205 c -0.12409,2.918958 -0.39073,5.893597 -0.59254,6.610299 -0.43844,1.557085 -1.58704,2.580735 -5.02556,4.478839 -1.41428,0.780699 -4.79815,3.205167 -7.51971,5.387705 -2.72157,2.182538 -7.292789,5.471921 -10.158276,7.309737 -3.474199,2.228225 -5.452023,3.733128 -5.936487,4.517009 -0.399582,0.646536 -1.133651,2.7372 -1.63126,4.645915 -1.275613,4.892952 -1.270218,9.389446 0.01644,13.681946 0.517733,1.72726 0.896141,3.17916 0.840905,3.22644 -0.295136,0.25265 -1.645947,0.39478 -2.5753,0.27097 l -1.5e-5,0 z M 58.892051,73.820525 c 3.398561,-0.69417 5.346467,-1.80698 7.144346,-4.081466 2.308159,-2.92004 2.498311,-4.027207 2.846702,-16.575121 0.17007,-6.125312 0.411317,-11.749286 0.536111,-12.49772 0.204014,-1.223577 0.401414,-1.433316 1.957678,-2.080071 1.381849,-0.57427 1.730782,-0.887971 1.730782,-1.556028 l 0,-0.836744 -6.010408,0 -6.010408,0 0,0.819318 c 0,0.682938 0.32312,0.921169 1.94121,1.43123 1.193214,0.376128 2.112789,0.911878 2.386485,1.390391 0.333645,0.583314 0.445276,3.747793 0.445276,12.622517 0,13.412858 -0.111489,14.103288 -2.647284,16.394229 -1.659053,1.498854 -3.271189,1.985976 -6.581209,1.988575 -3.037398,0.0025 -4.352225,-0.729872 -5.949515,-3.313428 l -1.057874,-1.711075 -0.309186,-8.526134 c -0.316084,-8.716297 0.03664,-17.279763 0.740747,-17.983869 0.199457,-0.199457 1.211889,-0.638651 2.249855,-0.975987 1.41836,-0.460963 1.915273,-0.80245 2.000182,-1.374552 l 0.112978,-0.761215 -9.418344,0 -9.418344,0 0.112978,0.786872 c 0.08133,0.566446 0.554315,0.949496 1.68845,1.367403 0.86651,0.319291 1.771964,0.880019 2.012122,1.24606 0.305803,0.466097 0.505186,3.685006 0.66536,10.741801 0.273349,12.042729 0.576589,15.355945 1.586662,17.335847 2.665857,5.225512 9.622281,7.706061 17.244648,6.149167 l 0,0 z M 100.97459,72.5281 c -0.075,-0.523294 -0.46962,-0.893617 -1.173639,-1.101365 -2.290036,-0.675761 -3.388102,-1.323389 -3.718862,-2.193346 -0.450424,-1.184708 -0.924546,-30.920458 -0.492896,-30.913468 0.876137,0.01418 4.905037,1.121539 5.840437,1.605253 1.29387,0.669089 2.95345,3.202023 3.74665,5.718351 0.48669,1.543936 0.72796,1.863559 1.40675,1.863559 l 0.81932,0 0,-5.656854 0,-5.656855 -16.440234,0 -16.440233,0 0,5.656855 c 0,5.298181 0.04209,5.656854 0.663818,5.656854 0.879648,0 1.241846,-0.509838 1.989572,-2.800578 0.371779,-1.138986 1.199685,-2.539464 2.040403,-3.451537 1.393,-1.511228 2.605812,-2.051886 6.235759,-2.779824 l 1.206837,-0.242018 -0.221625,15.186533 c -0.121895,8.352596 -0.373162,15.585107 -0.558374,16.072251 -0.341508,0.898237 -1.408536,1.47489 -3.489827,1.886013 -0.917379,0.18121 -1.149048,0.399518 -1.149048,1.082767 l 0,0.855791 9.924084,0 9.924088,0 -0.11298,-0.788382 0,0 z"
     id="path3772"
     inkscape:connector-curvature="0" /><path
     style="fill:#c75b12;fill-opacity:1"
     d="m 122.9587,72.474296 c 0,-0.325432 0.40579,-0.641537 0.97227,-0.757378 1.57036,-0.321125 2.69833,-1.012102 3.17779,-1.946657 0.34467,-0.671821 0.42738,-4.228076 0.35867,-15.420497 -0.10109,-16.465475 0.0413,-15.6804 -2.98274,-16.441871 -0.93211,-0.234707 -1.52599,-0.586392 -1.52599,-0.903658 0,-0.448854 1.4528,-0.498105 10.69499,-0.362569 11.51448,0.168859 12.88179,0.355369 16.66707,2.273519 2.28419,1.157487 5.51198,4.24609 6.67027,6.382652 1.93575,3.570629 2.67151,9.689506 1.67383,13.920193 -1.44293,6.118762 -6.29578,11.031325 -12.77149,12.928649 -1.46934,0.430501 -4.27484,0.59345 -12.41646,0.721172 -9.41969,0.147767 -10.51821,0.106667 -10.51821,-0.393555 z m 21.06256,-2.270893 c 2.15428,-1.111369 3.9332,-3.184108 4.73643,-5.518745 1.54801,-4.499367 1.78905,-12.600005 0.51594,-17.339087 -1.11877,-4.164551 -2.82864,-6.682591 -5.54214,-8.16162 -1.53193,-0.835 -2.28316,-1.012756 -4.28408,-1.013696 -1.97526,-9.27e-4 -2.51757,0.123559 -2.91681,0.669555 -0.40002,0.54706 -0.49043,3.446203 -0.49043,15.727248 0,16.460391 -1.8e-4,16.458849 2.0368,16.69338 1.66784,0.19203 4.49897,-0.311412 5.94429,-1.057035 l 0,0 z"
     id="path3774"
     inkscape:connector-curvature="0" /><path
     style="fill:#c75b12;fill-opacity:1"
     d="m 155.13206,72.432598 c 0,-0.291681 0.22216,-0.53033 0.4937,-0.53033 0.57055,0 2.58984,-2.195643 3.04382,-3.309646 0.16949,-0.41592 2.7582,-6.801981 5.75268,-14.191247 4.23266,-10.444646 5.58144,-13.435029 6.05973,-13.435029 0.47334,0 1.91674,3.057746 6.25854,13.258252 3.10382,7.292039 5.85151,13.73555 6.10598,14.318913 0.25446,0.583363 0.89866,1.577732 1.43155,2.209708 0.81975,0.972173 1.20593,1.149049 2.50874,1.149049 1.11789,0 1.81167,-0.233765 2.53183,-0.853079 l 0.99199,-0.85308 0,-12.493561 c 0,-6.871459 -0.12371,-12.936494 -0.27492,-13.477857 -0.27377,-0.98019 -0.96913,-1.430759 -2.81867,-1.826399 -0.53475,-0.114389 -0.97227,-0.364049 -0.97227,-0.554798 0,-0.216445 2.99035,-0.346818 7.95495,-0.346818 7.20281,0 9.04985,0.211299 7.3957,0.846057 -0.30758,0.118032 -0.95121,0.214603 -1.43028,0.214603 -0.47907,0 -1.26155,0.390516 -1.73885,0.867813 l -0.86782,0.867813 0,13.077498 0,13.077499 0.78578,0.550378 c 1.03208,0.722896 5.5346,0.735198 7.93725,0.02169 2.45281,-0.728407 4.6822,-2.797537 6.27017,-5.819451 1.26727,-2.411621 2.54638,-3.410959 2.16979,-1.695197 -0.26998,1.230003 -1.60664,8.867294 -1.60664,9.179856 0,0.152733 -9.30729,0.277696 -20.68287,0.277696 -18.14907,0 -20.68287,-0.06497 -20.68287,-0.53033 0,-0.356081 0.35613,-0.53033 1.0839,-0.53033 2.70466,0 3.0767,-1.388397 1.49213,-5.568466 l -0.97168,-2.563262 -5.5283,0 -5.52831,0 -0.93073,2.816086 c -0.5119,1.548847 -0.93072,3.130816 -0.93072,3.515486 0,0.938313 1.30717,1.800156 2.73032,1.800156 0.79431,0 1.15877,0.166799 1.15877,0.53033 0,0.444208 -0.7464,0.53033 -4.5962,0.53033 -3.8498,0 -4.59619,-0.08612 -4.59619,-0.53033 z m 17.16911,-11.048543 c -1.46019,-3.916928 -4.32307,-10.341437 -4.60833,-10.341437 -0.30822,0 -4.42905,9.964355 -4.42905,10.70963 0,0.137789 2.0853,0.250525 4.63402,0.250525 4.26551,0 4.61567,-0.0492 4.40336,-0.618718 z"
     id="path3776"
     inkscape:connector-curvature="0" /><path
     style="fill:#c75b12;fill-opacity:1"
     d="m 244.22751,72.432598 c 0,-0.291681 0.23614,-0.53033 0.52475,-0.53033 0.28862,0 1.00914,-0.437522 1.60117,-0.972272 1.00988,-0.912186 4.79935,-9.719677 11.48491,-26.693281 0.92486,-2.348073 1.5372,-3.447146 1.92053,-3.447146 0.40469,0 2.13065,3.69938 6.14446,13.169864 6.83672,16.131087 7.21728,16.904123 8.65911,17.589282 0.61381,0.291681 1.11946,0.729203 1.12367,0.972271 0.006,0.339767 -1.70889,0.441942 -7.41697,0.441942 -6.36396,0 -7.42462,-0.07576 -7.42462,-0.53033 0,-0.350939 0.351,-0.53033 1.03765,-0.53033 0.5707,0 1.46681,-0.163171 1.99136,-0.362602 0.88169,-0.33522 0.93799,-0.47539 0.74557,-1.856156 -0.11448,-0.821454 -0.5981,-2.448147 -1.07471,-3.614873 l -0.86656,-2.12132 -5.48414,-0.09722 -5.48414,-0.09722 -0.78105,2.041764 c -0.42957,1.12297 -0.85728,2.764182 -0.95046,3.647137 -0.15503,1.469009 -0.0897,1.64169 0.76897,2.032932 0.51612,0.235157 1.32866,0.427559 1.80564,0.427559 0.53519,0 0.86725,0.20306 0.86725,0.53033 0,0.444208 -0.74639,0.53033 -4.59619,0.53033 -3.84981,0 -4.5962,-0.08612 -4.5962,-0.53033 z M 259.6599,56.63489 c -1.21444,-2.952335 -2.38362,-5.426398 -2.59817,-5.497916 -0.32075,-0.106916 -1.94643,3.618229 -4.31761,9.893527 l -0.36738,0.972272 4.74562,0 4.74562,0 -2.20808,-5.367883 z"
     id="path3778"
     inkscape:connector-curvature="0" /><path
     style="fill:#c75b12;fill-opacity:1"
     d="m 214.88258,72.478858 c 0,-0.282428 0.53373,-0.570683 1.28129,-0.691995 2.72101,-0.441559 2.6078,0.192789 2.6078,-14.611857 0,-12.732052 -0.0252,-13.228702 -0.70711,-13.910563 -0.38891,-0.388909 -1.01229,-0.707107 -1.3853,-0.707107 -0.373,0 -0.92985,-0.09657 -1.23743,-0.214603 -1.65416,-0.634758 0.19289,-0.846057 7.3957,-0.846057 7.20281,0 9.04986,0.211299 7.39571,0.846057 -0.30759,0.118032 -0.95122,0.214603 -1.43029,0.214603 -0.47907,0 -1.26155,0.390516 -1.73885,0.867813 l -0.86781,0.867813 0,13.089396 0,13.089395 0.88604,0.580558 c 0.70856,0.464265 1.54071,0.551304 4.15425,0.434517 5.16103,-0.230622 7.78612,-1.948041 10.15723,-6.645169 0.62069,-1.229588 1.30848,-2.131779 1.62518,-2.131779 0.3575,0 0.4847,0.215872 0.36459,0.618718 -0.10147,0.340295 -0.53394,2.647231 -0.96106,5.126524 l -0.77657,4.507806 -13.38169,0 c -11.09076,0 -13.38168,-0.08287 -13.38168,-0.48407 z"
     id="path3780"
     inkscape:connector-curvature="0" /><path
     style="fill:#c75b12;fill-opacity:1"
     d="m 278.16864,68.013181 c 0,-6.487244 0.37484,-7.200157 1.7154,-3.262528 1.13007,3.31936 2.75089,5.433238 5.04096,6.574427 4.35394,2.169661 8.85837,0.451101 9.3999,-3.586318 0.43016,-3.207089 -0.51479,-4.243615 -7.00197,-7.680533 -7.36043,-3.899567 -9.15565,-6.184677 -8.71102,-11.088119 0.60428,-6.664094 6.22954,-9.562078 14.44805,-7.443252 l 3.22119,0.830463 0.63475,-0.783876 c 1.23018,-1.519211 1.40528,-1.000134 1.40528,4.165872 0,4.941163 -0.30766,6.06618 -1.08772,3.977476 -1.89458,-5.072955 -5.01042,-7.840486 -8.84788,-7.858799 -4.23818,-0.02022 -6.62775,4.618389 -3.9925,7.750207 0.45813,0.544455 3.17554,2.237078 6.03869,3.761385 6.01183,3.200625 7.33576,4.245432 8.47231,6.68607 2.37953,5.10983 -0.72148,11.418631 -6.3609,12.940855 -2.32486,0.627539 -6.16193,0.478821 -9.12935,-0.353836 -2.85302,-0.800562 -3.67493,-0.728373 -4.01812,0.352915 -0.11773,0.370944 -0.44199,0.674445 -0.72057,0.674445 -0.41853,0 -0.5065,-0.982503 -0.5065,-5.656854 z"
     id="path3782"
     inkscape:connector-curvature="0" /></svg>