<svg id="Layer_1" data-name="Layer 1" xmlns="http://www.w3.org/2000/svg" viewBox="0 0 576 576"><defs><style>.cls-1{fill:#fff;}</style></defs><title>UTDmono_rev</title><path class="cls-1" d="M424.16,168.15,417.53,170c-3.32-6.63-7.54-10.25-18.09-10.25H300.12V429c0,10.85,4.83,14.77,11.46,14.77l1.32,5.43H248.45l1.32-5.43c6.33,0,11.76-4.22,11.76-14.77V159.71h-99c-10.25,0-16,4.22-18.39,10.25l-6.63-1.81,9.65-41.3c2.41.91,7.84,1.51,16,1.51H401.25c4.52,0,10.85-.6,13.26-1.51ZM388.53,410.67c-27.48,0-61.77-1-70.38-1.94V402.6c6.62,0,10.93-4.52,10.93-10.32V200c0-6.45-4.3-10.65-10.93-10.65v-6.45c10.6-1,45.87-2.26,69.71-2.26,51,0,78.48,27.1,78.48,108.72C466.34,372.92,443.49,410.67,388.53,410.67Zm7-196.79c-4.64,0-24,0-26,.32V377.44c2,.32,21.7.32,24,.32,21.19,0,31.13-24.84,31.13-88.39C424.62,229.69,412,213.88,395.48,213.88ZM243.7,189.67v-6.45s-26.15.19-47,.15c0,0-4.56,5.26-4.56,18.25V362.28c0,12.9-9.27,19-20.2,19-10.26,0-19.87-5.16-19.87-19V201.62c0-8.06,4.64-12.26,10.93-12.26v-6.13H118.58s-6.6,6.23-6.6,18.39V366.15c0,8.71-.33,13.23-2.32,18.71,10.93,13.23,31.12,29.36,62.25,29.36,27.48,0,63.18-4.22,71.79-5.18v-6.13c-6.62,0-10.93-4.52-10.93-10.32V200.31C232.78,193.86,237.08,189.67,243.7,189.67Z"/></svg>