<svg id="Layer_1" data-name="Layer 1" xmlns="http://www.w3.org/2000/svg" viewBox="0 0 119 119"><defs><style>.cls-1{fill:#00a1de;}.cls-2{fill:none;stroke:#fff;stroke-miterlimit:10;stroke-width:3px;}.cls-3{fill:#fff;}</style></defs><title>bf-10</title><circle class="cls-1" cx="59.5" cy="59.5" r="58.5"/><circle class="cls-2" cx="59.5" cy="59.5" r="51.85"/><path class="cls-3" d="M85,81.08A4,4,0,0,1,81.08,85a3.64,3.64,0,0,1-2.76-1.16L67.81,73.35a21,21,0,0,1-12.23,3.8,21.21,21.21,0,0,1-8.38-1.7A21.13,21.13,0,0,1,35.7,64a21.51,21.51,0,0,1,0-16.76A21.13,21.13,0,0,1,47.19,35.7,21.51,21.51,0,0,1,64,35.7,21.12,21.12,0,0,1,75.45,47.19a21.2,21.2,0,0,1,1.7,8.38,21,21,0,0,1-3.8,12.23L83.87,78.32A3.75,3.75,0,0,1,85,81.08ZM65.28,65.28a13.69,13.69,0,0,0,0-19.4,13.69,13.69,0,0,0-19.4,0,13.69,13.69,0,0,0,0,19.4,13.69,13.69,0,0,0,19.4,0Z"/></svg>