<svg id="Layer_1" data-name="Layer 1" xmlns="http://www.w3.org/2000/svg" viewBox="0 0 119 119"><defs><style>.cls-1{fill:#5bc6e8;}.cls-2{fill:none;stroke:#fff;stroke-miterlimit:10;stroke-width:3px;}.cls-3{fill:#fff;}</style></defs><title>bf-14</title><circle class="cls-1" cx="59.5" cy="59.5" r="58.5"/><circle class="cls-2" cx="59.5" cy="59.5" r="51.85"/><path class="cls-3" d="M83.12,70.58h-6L69.47,53.27a12.28,12.28,0,0,0-5.81-18.81v-4.7a4.16,4.16,0,1,0-8.31,0v4.7a12.28,12.28,0,0,0-5.81,18.81L41.88,70.58h-6a2.19,2.19,0,1,0,0,4.39h4.06l-3.52,8a8,8,0,0,0,4.87,10.45L49.53,75h6V70.58H51.49L57,58.13a12.33,12.33,0,0,0,4.91,0l5.56,12.45H61.69V67.27a2.19,2.19,0,0,0-4.39,0v11a2.19,2.19,0,0,0,4.39,0V75h7.78L77.7,93.39a8,8,0,0,0,4.87-10.45l-3.52-8h4.06a2.19,2.19,0,0,0,0-4.39ZM53.32,46.05a6.18,6.18,0,1,1,6.18,6.19A6.19,6.19,0,0,1,53.32,46.05Z"/></svg>