<svg id="Layer_1" data-name="Layer 1" xmlns="http://www.w3.org/2000/svg" viewBox="0 0 119 119"><defs><style>.cls-1{fill:#00a1de;}.cls-2{fill:none;stroke:#fff;stroke-miterlimit:10;stroke-width:3px;}.cls-3{fill:#fff;}</style></defs><title>bf-1</title><circle class="cls-1" cx="59.5" cy="59.5" r="58.5"/><circle class="cls-2" cx="59.5" cy="59.5" r="51.85"/><path class="cls-3" d="M70.45,56.37V62.7a1.11,1.11,0,0,1-.24.67.79.79,0,0,1-.55.36l-5.31.82a17,17,0,0,1-1.1,2.6q1.16,1.64,3.08,3.94a1.31,1.31,0,0,1,.24.68.88.88,0,0,1-.24.65,35.92,35.92,0,0,1-2.82,3.06q-2,2-2.69,2a1.23,1.23,0,0,1-.72-.24L56.18,74.2a15.57,15.57,0,0,1-2.64,1.06,40.77,40.77,0,0,1-.79,5.3,1,1,0,0,1-1,.82H45.36a1,1,0,0,1-.68-.26.88.88,0,0,1-.34-.6l-.79-5.24A15,15,0,0,1,41,74.23l-4,3a.93.93,0,0,1-.68.24,1.13,1.13,0,0,1-.72-.27q-4.93-4.55-4.93-5.48a1.15,1.15,0,0,1,.24-.65q.34-.48,1.4-1.81t1.61-2.09a17.44,17.44,0,0,1-1.2-2.81l-5.2-.82a.84.84,0,0,1-.58-.33,1,1,0,0,1-.24-.67V56.27a1.11,1.11,0,0,1,.24-.67.8.8,0,0,1,.55-.36l5.31-.82a16.84,16.84,0,0,1,1.1-2.6q-1.16-1.64-3.08-3.94a1.31,1.31,0,0,1-.24-.68,1,1,0,0,1,.24-.68,29.13,29.13,0,0,1,2.81-3q2.05-2,2.7-2a1.24,1.24,0,0,1,.72.24l3.94,3.08a16.72,16.72,0,0,1,2.64-1.1,39.29,39.29,0,0,1,.79-5.27,1,1,0,0,1,1-.82h6.37a1,1,0,0,1,.68.26.88.88,0,0,1,.34.6l.79,5.24a15,15,0,0,1,2.57,1.06l4-3a1,1,0,0,1,.68-.24,1.14,1.14,0,0,1,.72.27q4.93,4.55,4.93,5.48a1.27,1.27,0,0,1-.24.65q-.41.55-1.44,1.85t-1.54,2.05a23.39,23.39,0,0,1,1.16,2.81l5.2.79a1,1,0,0,1,.58.36A1,1,0,0,1,70.45,56.37ZM54.74,65.68A8.76,8.76,0,1,0,42.35,53.29,8.76,8.76,0,1,0,54.74,65.68ZM92.36,39.56v4.79q0,.55-5.1,1.06a10,10,0,0,1-1,1.78A19,19,0,0,1,88,51.92a.3.3,0,0,1-.14.24q-4.18,2.43-4.24,2.43-.28,0-1.57-1.61t-1.78-2.33q-.68.07-1,.07t-1-.07q-.48.72-1.78,2.33t-1.57,1.61s-1.46-.81-4.24-2.43a.29.29,0,0,1-.14-.24A19,19,0,0,1,72.2,47.2a10,10,0,0,1-1-1.78q-5.1-.51-5.1-1.06V39.56q0-.55,5.1-1.06a9.53,9.53,0,0,1,1-1.78A19,19,0,0,1,70.45,32a.3.3,0,0,1,.14-.24l1.2-.68,2-1.16a8.39,8.39,0,0,1,1-.55q.27,0,1.57,1.59t1.78,2.31q.68-.07,1-.07t1,.07a31.56,31.56,0,0,1,3.15-3.83l.21-.07q.14,0,4.24,2.4A.3.3,0,0,1,88,32a19,19,0,0,1-1.75,4.72,9.61,9.61,0,0,1,1,1.78Q92.36,39,92.36,39.56Zm0,35V79.4q0,.55-5.1,1.06a10,10,0,0,1-1,1.78A19,19,0,0,1,88,87a.3.3,0,0,1-.14.24q-4.18,2.43-4.24,2.43-.28,0-1.57-1.61T80.24,85.7q-.68.07-1,.07t-1-.07q-.48.72-1.78,2.33t-1.57,1.61s-1.46-.81-4.24-2.43a.3.3,0,0,1-.14-.24,19,19,0,0,1,1.75-4.72,10,10,0,0,1-1-1.78q-5.1-.51-5.1-1.06V74.61q0-.55,5.1-1.06a9.53,9.53,0,0,1,1-1.78A19,19,0,0,1,70.45,67a.3.3,0,0,1,.14-.24l1.2-.68,2-1.16a8.52,8.52,0,0,1,1-.55q.27,0,1.57,1.59t1.78,2.31q.68-.07,1-.07t1,.07a31.62,31.62,0,0,1,3.15-3.83l.21-.07q.14,0,4.24,2.4A.3.3,0,0,1,88,67a19,19,0,0,1-1.75,4.72,9.61,9.61,0,0,1,1,1.78Q92.36,74.06,92.36,74.61ZM83.6,42a4.38,4.38,0,1,0-1.28,3.1A4.21,4.21,0,0,0,83.6,42Zm0,35a4.38,4.38,0,1,0-1.28,3.1A4.21,4.21,0,0,0,83.6,77Z"/></svg>