<svg id="Layer_1" data-name="Layer 1" xmlns="http://www.w3.org/2000/svg" viewBox="0 0 119 119"><defs><style>.cls-1{fill:#ffb612;}.cls-2{fill:none;stroke:#fff;stroke-miterlimit:10;stroke-width:3px;}.cls-3{fill:#fff;}</style></defs><title>bf-11</title><circle class="cls-1" cx="59.5" cy="59.5" r="58.5"/><circle class="cls-2" cx="59.5" cy="59.5" r="51.85"/><path class="cls-3" d="M89.56,69.67a6.16,6.16,0,0,0-7.53,1L71,64.33a12.43,12.43,0,0,0,0-9.65L82,48.29a6.28,6.28,0,1,0-1.56-2.69L69.37,52a12.37,12.37,0,0,0-8.31-4.79V34.39a6.22,6.22,0,1,0-3.11,0V47.21A12.37,12.37,0,0,0,49.63,52L38.53,45.6A6.28,6.28,0,1,0,37,48.29L48,54.67a12.43,12.43,0,0,0,0,9.65L37,70.71a6.28,6.28,0,1,0,1.56,2.69L49.63,67a12.37,12.37,0,0,0,8.31,4.79V84.61a6.22,6.22,0,1,0,3.11,0V71.79A12.37,12.37,0,0,0,69.37,67l11.1,6.41a6.21,6.21,0,1,0,9.09-3.73ZM83.44,43.14a3.12,3.12,0,0,1,3-2.31,3.14,3.14,0,0,1,.81.11,3.11,3.11,0,1,1-3.81,2.2ZM35.25,45.5a3.11,3.11,0,1,1-3.5-4.56,3.14,3.14,0,0,1,.81-.11,3.11,3.11,0,0,1,2.69,4.67Zm.31,30.36a3.11,3.11,0,1,1-3-3.92,3.14,3.14,0,0,1,.81.11,3.11,3.11,0,0,1,2.2,3.81ZM56.39,28.39A3.11,3.11,0,1,1,59.5,31.5,3.11,3.11,0,0,1,56.39,28.39Zm6.22,62.23A3.11,3.11,0,1,1,59.5,87.5,3.11,3.11,0,0,1,62.61,90.61ZM59.5,68.83a9.33,9.33,0,1,1,9.33-9.33A9.34,9.34,0,0,1,59.5,68.83Zm29.64,7.78a3.11,3.11,0,1,1,.31-2.36A3.09,3.09,0,0,1,89.14,76.61Z"/></svg>