<svg id="Layer_1" data-name="Layer 1" xmlns="http://www.w3.org/2000/svg" viewBox="0 0 119 119"><defs><style>.cls-1{fill:#69be28;}.cls-2{fill:none;stroke:#fff;stroke-miterlimit:10;stroke-width:3px;}.cls-3{fill:#fff;}</style></defs><title>bf-12</title><circle class="cls-1" cx="59.5" cy="59.5" r="58.5"/><circle class="cls-2" cx="59.5" cy="59.5" r="51.85"/><path class="cls-3" d="M31,69.2a4.08,4.08,0,0,0,.78,5.7h0a4.08,4.08,0,0,0,5.75-.24l4.07-4.86a4.08,4.08,0,0,0-.78-5.7h0a4.08,4.08,0,0,0-5.75.24Z"/><path class="cls-3" d="M37.67,74.53c-1.2,1.44-.74,3.8,1,5.28h0c1.77,1.48,4.18,1.51,5.38.08l3.56-4.26c1.2-1.44.74-3.8-1-5.28h0c-1.77-1.48-4.18-1.51-5.38-.08Z"/><path class="cls-3" d="M44.38,79.51c-1.14,1.37-.69,3.63,1,5.06h0c1.7,1.43,4,1.47,5.16.11l3.39-4c1.14-1.37.69-3.63-1-5.06h0c-1.7-1.43-4-1.47-5.16-.11Z"/><path class="cls-3" d="M51.5,83.54c-.88,1.05-.45,2.87,1,4.05h0c1.42,1.18,3.28,1.29,4.16.24l2.61-3.12c.88-1.05.45-2.87-1-4.05h0c-1.42-1.18-3.28-1.29-4.16-.24Z"/><path class="cls-3" d="M91.86,60.85a1.8,1.8,0,0,0,2.43.72l5.11-2.43a1.8,1.8,0,0,0,1-2.34L88.25,31.36a1.8,1.8,0,0,0-2.43-.72l-5.11,2.43a1.8,1.8,0,0,0-1,2.34Z"/><path class="cls-3" d="M27.14,60.85a1.8,1.8,0,0,1-2.43.72L19.6,59.13a1.8,1.8,0,0,1-1-2.34L30.75,31.36a1.8,1.8,0,0,1,2.43-.72l5.11,2.43a1.8,1.8,0,0,1,1,2.34Z"/><path class="cls-3" d="M62.29,48.11a6.64,6.64,0,0,0-3.88-.65,4.79,4.79,0,0,0-3.13,2.48,19.41,19.41,0,0,1-.54,2.37,9.6,9.6,0,0,1-5.31,5.6,8.25,8.25,0,0,1-4.85,0A3.66,3.66,0,0,1,42.93,56a2.87,2.87,0,0,1,0-.85s.75-1.62.89-2.08A10,10,0,0,0,44.36,51s.34-3.48.28-3.72A5.48,5.48,0,0,1,45,45.76s1.69-3.18,1.85-3.28H38.6l1.94-3.67H52.79s6.43-4.53,15.64-1.46c0,0,4.81,1.29,5.54,1.37a37.09,37.09,0,0,0,3.84.28L88.72,61.86l-1.78,4a6.69,6.69,0,0,1,1.78,5.7s-.85,3.35-3.64,4.08a12.6,12.6,0,0,1-2.41.36s.63,6.29-6.4,5.82c0,0-1.7,7.94-9.08,3.41,0,0-2.48,5.58-8.14,2.37,0,0-18.75-11.92-29.1-25.79l1.29-3.31S44.72,75.92,60.67,85.41A3.59,3.59,0,0,0,63,85.5s1.54-.61,1.54-2L57.18,78a1.39,1.39,0,0,1,1.51-2.26L69.57,83.4a2.24,2.24,0,0,0,2.21.2A2.9,2.9,0,0,0,73,82.17a2.11,2.11,0,0,0-.08-2,2,2,0,0,0-.34-.46L60.89,71.23a1.39,1.39,0,0,1-.55-1.37s.18-.94,1-1.08a2,2,0,0,1,1.24.09l13.66,9.71a2.86,2.86,0,0,0,2.45,0,2.17,2.17,0,0,0,1.07-1.48A2.28,2.28,0,0,0,79,74.75L64.11,64.12a2.2,2.2,0,0,1-.71-1.6s.22-1,1-1.08a2,2,0,0,1,1.41.28L81.42,72.85a3.09,3.09,0,0,0,2.78-.06,4.77,4.77,0,0,0,1.43-1.46,1.14,1.14,0,0,0,.2-.55,3.69,3.69,0,0,0-.2-1.82,1.93,1.93,0,0,0-.41-.59L64.31,50.14S62.4,48.17,62.29,48.11Z"/></svg>