<svg id="Layer_1" data-name="Layer 1" xmlns="http://www.w3.org/2000/svg" viewBox="0 0 119 119"><defs><style>.cls-1{fill:#c9dd03;}.cls-2{fill:none;stroke:#fff;stroke-miterlimit:10;stroke-width:3px;}.cls-3{fill:#fff;fill-rule:evenodd;}</style></defs><title>bf-13</title><circle class="cls-1" cx="59.5" cy="59.5" r="58.5"/><circle class="cls-2" cx="59.5" cy="59.5" r="51.85"/><path class="cls-3" d="M85.58,33.65a6,6,0,1,1-6,6,6,6,0,0,1,6-6Zm-26.9,21a6,6,0,1,1-6,6,6,6,0,0,1,6-6ZM72.54,84.45a21.08,21.08,0,0,1-5,3.12L66.05,82.1v6.05a21.14,21.14,0,0,1-14,0V82.1l-1.47,5.47a21.09,21.09,0,0,1-5-3.12l3.69-13.76A2.84,2.84,0,0,1,52,68.6h4.37l2.48,4.56,2.48-4.56h4.69a2.84,2.84,0,0,1,1.77.57h0a2.81,2.81,0,0,1,1,1.53l3.69,13.76Zm-27-37.88a6,6,0,1,0,6,6,6,6,0,0,0-6-6ZM31.68,76.34a21.08,21.08,0,0,0,5,3.12L38.17,74V80A21,21,0,0,0,45,81.23l2.92-10.9a4.2,4.2,0,0,1,1.55-2.28l.83,1.11-.83-1.11.06,0a4.23,4.23,0,0,1,2.41-.8h3.2a7.43,7.43,0,0,1-3.83-6.49c0-.08,0-.15,0-.23H47.83L45.34,65l-2.48-4.56H38.17A2.84,2.84,0,0,0,36.4,61h0a2.82,2.82,0,0,0-1,1.53L31.68,76.34ZM72.54,46.57a6,6,0,1,1-6,6,6,6,0,0,1,6-6ZM86.39,76.34a21.08,21.08,0,0,1-5,3.12L79.91,74V80a21,21,0,0,1-6.79,1.2L70.2,70.34a4.2,4.2,0,0,0-1.49-2.24l-.06,0h0a4.23,4.23,0,0,0-2.47-.84H62.27a7.43,7.43,0,0,0,3.83-6.49c0-.08,0-.15,0-.23h4.15L72.73,65l2.48-4.56h4.69a2.84,2.84,0,0,1,1.77.57h0a2.82,2.82,0,0,1,1,1.53l3.69,13.76ZM32.71,33.65a6,6,0,1,1-6,6,6,6,0,0,1,6-6Zm-.32,34.66A21,21,0,0,1,26,67.12V61.07l-1.47,5.47a21.06,21.06,0,0,1-5-3.12l3.69-13.76a2.84,2.84,0,0,1,2.8-2.1h4.37l2.48,4.56,2.48-4.56h4.7a7.42,7.42,0,0,0,1.86,11.53H38a4.23,4.23,0,0,0-2.47.84h0l-.06,0A4.2,4.2,0,0,0,34,62.22l-1.63,6.09ZM51.1,47.69a2.82,2.82,0,0,1,.92-.13h4.37l2.48,4.56,2.48-4.56h4.69a2.82,2.82,0,0,1,.92.13,7.42,7.42,0,0,0,2,11.4h-3a7.42,7.42,0,0,0-14.48,0H49.13a7.42,7.42,0,0,0,2-11.4Zm27,0a2.83,2.83,0,0,1,.84-.11h4.37l2.48,4.56,2.48-4.56H93a2.84,2.84,0,0,1,2.8,2.1l3.69,13.76a21.08,21.08,0,0,1-5,3.12L93,61.07v6.05a21,21,0,0,1-7,1.2h-.25l-1.63-6.09A4.2,4.2,0,0,0,82.56,60l-.06,0h0A4.23,4.23,0,0,0,80,59.1H76.13a7.42,7.42,0,0,0,2-11.42Zm-19.4-14a6,6,0,1,1-6,6,6,6,0,0,1,6-6Z"/></svg>