<svg id="Layer_1" data-name="Layer 1" xmlns="http://www.w3.org/2000/svg" viewBox="0 0 119 119"><defs><style>.cls-1{fill:#ffb612;}.cls-2{fill:none;stroke:#fff;stroke-miterlimit:10;stroke-width:3px;}.cls-3{fill:#fff;}</style></defs><title>bf-2</title><circle class="cls-1" cx="59.5" cy="59.5" r="58.5"/><circle class="cls-2" cx="59.5" cy="59.5" r="51.85"/><path class="cls-3" d="M91.67,51.74H33.52V84H93.33V51.74ZM89.55,74.68h-.08A5.36,5.36,0,0,0,84.11,80v0H42.71v0a5.36,5.36,0,0,0-5.36-5.36h-.08v-14h.08a5.36,5.36,0,0,0,5.36-5.36s0-.07,0-.1h41.4s0,.07,0,.1a5.36,5.36,0,0,0,5.36,5.36h.08Z"/><path class="cls-3" d="M32,59.21l-.48-1.9.08,0,.4-.12v-7h5.46l38.17-9.57,0,.1a5.36,5.36,0,0,0,6.5,3.9l.07,0,1.4,5.6h3.9L84.71,39.06l-.62-2.46-.4-1.6-1.6.4-1.64.41L28.91,48.74l-1.64.41-1.6.4.4,1.6.62,2.46,5.27,21Z"/><path class="cls-3" d="M67.34,50.18a10.58,10.58,0,0,0-15.33,0Z"/><path class="cls-3" d="M62.89,62.73a2,2,0,0,0-.07,2.52,2.18,2.18,0,0,0,.73.54l.21.1V62.24l-.2.07A1.56,1.56,0,0,0,62.89,62.73Z"/><path class="cls-3" d="M65.78,68.38l-.21-.09v4.1l.2-.07a1.72,1.72,0,0,0,.74-.5,2.27,2.27,0,0,0,.55-1.57A2,2,0,0,0,66.69,69,2.46,2.46,0,0,0,65.78,68.38Z"/><path class="cls-3" d="M64.57,56.87A10.71,10.71,0,1,0,75.29,67.58,10.73,10.73,0,0,0,64.57,56.87ZM67.94,73a3.88,3.88,0,0,1-2.24,1.16l-.12,0V75.8H63.76V74.16l-.12,0a5.3,5.3,0,0,1-1.42-.46,3.52,3.52,0,0,1-1.34-1.29,4.57,4.57,0,0,1-.65-2.15V70.1l1.9-.36,0,.18a3.84,3.84,0,0,0,.61,1.78,1.94,1.94,0,0,0,.8.61l.21.09V67.81l-.11,0a7.19,7.19,0,0,1-1.51-.64,3.08,3.08,0,0,1-1.22-1.23,3.86,3.86,0,0,1,.82-4.6,3.87,3.87,0,0,1,1.9-.82l.12,0v-.87h1.81v.87l.12,0a3.57,3.57,0,0,1,3,3.22l0,.17-2,.29,0-.17a2.54,2.54,0,0,0-.54-1.33,1.21,1.21,0,0,0-.43-.3l-.21-.09v4.09l.11,0a8.83,8.83,0,0,1,1.08.34,4.07,4.07,0,0,1,1.25.82,3.35,3.35,0,0,1,.75,1.16A4.21,4.21,0,0,1,67.94,73Z"/></svg>