<svg id="Layer_1" data-name="Layer 1" xmlns="http://www.w3.org/2000/svg" viewBox="0 0 119 119"><defs><style>.cls-1{fill:#69be28;}.cls-2{fill:#fff;}.cls-3{fill:none;stroke:#fff;stroke-miterlimit:10;stroke-width:3px;}</style></defs><title>bf-3</title><circle class="cls-1" cx="59.5" cy="59.5" r="58.5"/><path class="cls-2" d="M80.07,75.74c2.8-1.89,4.74-4.43,4.74-8.14l0-12-4.72,1.93Z"/><path class="cls-2" d="M60.6,61.68,74.72,56,60.41,49a6.84,6.84,0,0,1-.95.07c-2.23,0-4-1.07-4-2.38s1.8-2.38,4-2.38,4,1.07,4,2.38a1.56,1.56,0,0,1-.25.81L78,54.69l17.93-7.21a.76.76,0,0,0,0-1.37L60.55,31.8a3,3,0,0,0-2.17,0L23.16,46.07a.8.8,0,0,0-.05,1.46L58.3,61.67A2.91,2.91,0,0,0,60.6,61.68Z"/><path class="cls-2" d="M74.07,87.4a3.5,3.5,0,0,0,3.19-2.07,3,3,0,0,1-3.19-3V60l-13,5.22a3.36,3.36,0,0,1-3.06.08l-23.91-9.6v12c0,6.18,5.41,9,11.19,11.19,6.82,2.59,17.65,2.66,25.25.88v4.21A3.51,3.51,0,0,0,74.07,87.4Z"/><circle class="cls-3" cx="59.5" cy="59.5" r="51.85"/></svg>