<svg id="Layer_1" data-name="Layer 1" xmlns="http://www.w3.org/2000/svg" viewBox="0 0 119 119"><defs><style>.cls-1{fill:#c9dd03;}.cls-2{fill:none;stroke:#fff;stroke-miterlimit:10;stroke-width:3px;}.cls-3{fill:#fff;}</style></defs><title>bf-4</title><circle class="cls-1" cx="59.5" cy="59.5" r="58.5"/><circle class="cls-2" cx="59.5" cy="59.5" r="51.85"/><path class="cls-3" d="M85.44,61.66c-7.57,2.34-7,3.46-14.29,6.24-3.92,1.5-8.23,2.5-11.18-.79-.91-2.58.73-2.87,5.71-6.3C71.13,57.05,72,54.07,70.44,52s-4.37-1.16-7.1.83A77.47,77.47,0,0,1,39,64.36l-.22,0v19.2c.2,0,.4.06.61.07,11.65.6,26.7-.39,26.7-.39a7,7,0,0,0,4.64-1.45S82.3,70.74,88.17,67.74s5.5-3,5.82-4.07C94.63,61.49,90.08,60.22,85.44,61.66Z"/><path class="cls-3" d="M34,60.83h-9.1V86.51h8.89s2-.21,2.08-1.84c.12-5,0-19.8,0-21.47A2.35,2.35,0,0,0,34,60.83Z"/><path class="cls-3" d="M42.6,42.09H61.24v.61h-18l-.61-.61L45,44.46H62.42a8,8,0,1,0,0-7.94H58.58L58,35.94h-.64l-1.81,1.81H54l-.9-.9H52.5l-.9.9h-1l-.9-.9h-.62L47.86,38H46.49l-1.2-1.2h-.64l-3,3v1.26Zm30.49-3.61a2,2,0,1,1-2,2A2,2,0,0,1,73.09,38.48Z"/></svg>