<svg id="Layer_1" data-name="Layer 1" xmlns="http://www.w3.org/2000/svg" viewBox="0 0 119 119"><defs><style>.cls-1{fill:#0039a5;}.cls-2{fill:none;stroke:#fff;stroke-miterlimit:10;stroke-width:3px;}.cls-3{fill:#fff;fill-rule:evenodd;}</style></defs><title>bf-6</title><circle class="cls-1" cx="59.5" cy="59.5" r="58.5"/><circle class="cls-2" cx="59.5" cy="59.5" r="51.85"/><path class="cls-3" d="M59,40a8.85,8.85,0,1,1-8.85,8.85A8.85,8.85,0,0,1,59,40ZM79.33,28.08a8.85,8.85,0,1,1-8.85,8.85,8.85,8.85,0,0,1,8.85-8.85Zm-39.66,0a8.85,8.85,0,1,0,8.85,8.85,8.85,8.85,0,0,0-8.85-8.85ZM19.31,71.8a31,31,0,0,0,7.38,4.58l2.15-8v8.89a30.86,30.86,0,0,0,10,1.76l4.29-16a6.16,6.16,0,0,1,2.27-3.35l1.22,1.63-1.22-1.64.08-.06A6.21,6.21,0,0,1,49,58.4h4.7a10.91,10.91,0,0,1-5.62-9.54c0-.11,0-.23,0-.34H43l-3.65,6.7-3.65-6.7H28.85a4.17,4.17,0,0,0-4.12,3.08L19.31,71.8Zm80.37,0a31,31,0,0,1-7.38,4.58l-2.15-8v8.89a30.86,30.86,0,0,1-10,1.76L75.89,63a6.17,6.17,0,0,0-2.19-3.29l-.08-.07h0A6.22,6.22,0,0,0,70,58.4H64.25a10.91,10.91,0,0,0,5.62-9.54c0-.11,0-.23,0-.34H76l3.65,6.7,3.65-6.7h6.89a4.17,4.17,0,0,1,4.12,3.08L99.69,71.8ZM72.4,61.27h0a4.13,4.13,0,0,1,1.52,2.25l5.41,20.21A31,31,0,0,1,72,88.31l-2.15-8v8.89a31.05,31.05,0,0,1-20.61,0V80.28l-2.15,8a30.94,30.94,0,0,1-7.38-4.58l5.42-20.21a4.17,4.17,0,0,1,4.12-3.08h6.42l3.65,6.7,3.65-6.7H69.8a4.18,4.18,0,0,1,2.6.83Z"/></svg>