<svg id="Layer_1" data-name="Layer 1" xmlns="http://www.w3.org/2000/svg" viewBox="0 0 119 119"><defs><style>.cls-1{fill:#ffb612;}.cls-2{fill:none;stroke:#fff;stroke-miterlimit:10;stroke-width:3px;}.cls-3{fill:#fff;fill-rule:evenodd;}</style></defs><title>bf-7</title><circle class="cls-1" cx="59.5" cy="59.5" r="58.5"/><circle class="cls-2" cx="59.5" cy="59.5" r="51.85"/><path class="cls-3" d="M47.5,37.7a9.9,9.9,0,1,1-9.9,9.9,9.9,9.9,0,0,1,9.9-9.9ZM70.34,24.37a9.9,9.9,0,1,1-9.9,9.9,9.9,9.9,0,0,1,9.9-9.9ZM93.1,73.25a34.64,34.64,0,0,1-8.25,5.12l-2.41-9v9.93a34.49,34.49,0,0,1-11.24,2L66.4,63.4A6.89,6.89,0,0,0,64,59.72l-.09-.07h0a7,7,0,0,0-4-1.39H53.39A12.2,12.2,0,0,0,59.68,47.6q0-.19,0-.38h6.91l4.08,7.49,4.08-7.49h7.7A4.67,4.67,0,0,1,87,50.66L93.1,73.25ZM62.5,61.48h0A4.62,4.62,0,0,1,64.2,64l6.05,22.59A34.61,34.61,0,0,1,62,91.71l-2.41-9v9.93a34.71,34.71,0,0,1-23,0V82.73l-2.41,9a34.58,34.58,0,0,1-8.25-5.12L32,64a4.67,4.67,0,0,1,4.6-3.44h7.18L47.82,68l4.08-7.49h7.7a4.67,4.67,0,0,1,2.9.93Z"/></svg>