<svg id="Layer_1" data-name="Layer 1" xmlns="http://www.w3.org/2000/svg" viewBox="0 0 119 119"><defs><style>.cls-1{fill:#69be28;}.cls-2{fill:none;stroke:#fff;stroke-miterlimit:10;stroke-width:3px;}.cls-3{fill:#fff;}</style></defs><title>bf-8</title><circle class="cls-1" cx="59.5" cy="59.5" r="58.5"/><circle class="cls-2" cx="59.5" cy="59.5" r="51.85"/><path class="cls-3" d="M83.19,69.07a4,4,0,0,0-3.33,3c0,.08,0,.15-.06.23a.46.46,0,0,1-.08-.27c0-.39,0-.79,0-1.18a4.31,4.31,0,0,0-.19-1.35,3.94,3.94,0,0,0-7.17-.95,7.26,7.26,0,0,0-.38.8,1.48,1.48,0,0,1-.13.19l-.08,0a3.72,3.72,0,0,1,0-.38c0-.46,0-.91,0-1.37a5.85,5.85,0,0,0-.18-1.23,3.94,3.94,0,0,0-7.49-.32l-.16.37c-.21-.17-.14-.35-.14-.51q0-5.78,0-11.55a5.89,5.89,0,0,0,0-.81,4,4,0,0,0-7.72-.6,5,5,0,0,0-.18,1.42V80.14l-.1,0a1.17,1.17,0,0,1-.18-.11l-.39-.39c-1.17-1.16-2.33-2.34-3.51-3.49A4.11,4.11,0,0,0,47.92,75a3.92,3.92,0,0,0-3.1,4.63A4.18,4.18,0,0,0,46,81.78L58.67,94.39a4,4,0,0,0,3,1.24H84.38a3.42,3.42,0,0,0,.7-.06,3.24,3.24,0,0,0,2.62-3.25q0-9.54,0-19.08a4.48,4.48,0,0,0-.28-1.55A3.91,3.91,0,0,0,83.19,69.07Z"/><path class="cls-3" d="M92.46,53a32.6,32.6,0,0,0-1.22-6.14A33.15,33.15,0,0,0,59.51,23.37a35.36,35.36,0,0,0-5.91.52A33.12,33.12,0,0,0,26.36,56.42a33,33,0,0,0,5.79,18.66c.29.43.59.85.91,1.25A2.06,2.06,0,0,0,36.71,75a2.38,2.38,0,0,0-.56-1.37A28.54,28.54,0,0,1,30.53,58a27.86,27.86,0,0,1,.59-7.66A29,29,0,0,1,56.59,27.64a27.43,27.43,0,0,1,4.27-.11,29.13,29.13,0,0,1,5.18.71,29,29,0,0,1,22.42,26.6,27.78,27.78,0,0,1-.39,6.58,2.06,2.06,0,1,0,4.05.72c.18-1.2.34-2.41.43-3.62A31.06,31.06,0,0,0,92.46,53Z"/><path class="cls-3" d="M37.91,57.49A21.1,21.1,0,0,1,38.58,51,21.63,21.63,0,0,1,59.49,34.86a20.52,20.52,0,0,1,4.57.5A21.37,21.37,0,0,1,78.88,46.89,20.25,20.25,0,0,1,81,54a20.91,20.91,0,0,1,0,4.75c-.06.5-.15,1-.19,1.5a2,2,0,0,0,2.68,2.09,2,2,0,0,0,1.42-1.76c.12-.85.24-1.71.29-2.56a25.65,25.65,0,0,0-24.9-27.29,25.65,25.65,0,0,0-22.77,39c.45.73.94,1.44,1.46,2.13a2,2,0,0,0,2.29.64,2,2,0,0,0,1.36-2,2.3,2.3,0,0,0-.53-1.38A21.27,21.27,0,0,1,37.91,57.49Z"/><path class="cls-3" d="M47.3,68.13A2.06,2.06,0,0,0,48.39,66a2.55,2.55,0,0,0-.51-1.09,14,14,0,0,1-2.14-12.65A14.3,14.3,0,0,1,58,42.15,14.38,14.38,0,0,1,73.7,58.83a2.06,2.06,0,1,0,4.06.68,21.11,21.11,0,0,0,.27-3,20.88,20.88,0,0,0-.41-3.9A18.5,18.5,0,0,0,60.83,38a18.2,18.2,0,0,0-5.89.52A18.48,18.48,0,0,0,41.16,59a18.24,18.24,0,0,0,3.45,8.44,3.15,3.15,0,0,0,.31.37A2.05,2.05,0,0,0,47.3,68.13Z"/></svg>