<svg id="Layer_1" data-name="Layer 1" xmlns="http://www.w3.org/2000/svg" viewBox="0 0 119 119"><defs><style>.cls-1{fill:#c9dd03;}.cls-2{fill:none;stroke:#fff;stroke-miterlimit:10;stroke-width:3px;}.cls-3{fill:#fff;}</style></defs><title>bf-9</title><circle class="cls-1" cx="59.5" cy="59.5" r="58.5"/><circle class="cls-2" cx="59.5" cy="59.5" r="51.85"/><circle class="cls-3" cx="31.78" cy="46.88" r="6.21"/><path class="cls-3" d="M85.11,67.47c-.18.58-.37,1.15-.59,1.7H75.82a44.77,44.77,0,0,0,1-7.79h3.65a8.85,8.85,0,0,1,0-3.78H76.8a44.78,44.78,0,0,0-1-7.79h8.71c.22.56.41,1.13.59,1.7a8.85,8.85,0,0,1,5.78-.84,32.59,32.59,0,0,0-56.24-12.3,9,9,0,0,1,4.59,3.52A26.89,26.89,0,0,1,52,33.73c-3.33,2.64-6.07,7-7.81,12.32H40.71c0,.27,0,.55,0,.83a8.92,8.92,0,0,1-.51,2.95h2.92a44.78,44.78,0,0,0-1,7.79H32.72c0-.62.11-1.23.2-1.84a8.73,8.73,0,0,1-5.69-1.16A32.62,32.62,0,0,0,90.89,68.31a8.85,8.85,0,0,1-5.78-.84ZM82.71,46.05H74.79C73.06,40.7,70.31,36.37,67,33.73A27,27,0,0,1,82.71,46.05ZM61.38,34.65c4.1,1,7.63,5.33,9.76,11.4H61.38Zm0,15.18H72.23a42.51,42.51,0,0,1,1,7.79H61.38ZM57.6,34.65v11.4H47.85C50,40,53.51,35.67,57.6,34.65ZM46.75,49.83H57.6v7.79H45.73A42.51,42.51,0,0,1,46.75,49.83Zm-14,11.56h9.46a44.77,44.77,0,0,0,1,7.79H34.46A26.63,26.63,0,0,1,32.72,61.39Zm3.55,11.56h7.91c1.74,5.35,4.48,9.68,7.81,12.32A27,27,0,0,1,36.28,72.95Zm25.1,11.4V79.83a8.85,8.85,0,0,1-3.78,0v4.52c-4.1-1-7.63-5.33-9.76-11.4h2.87a8.86,8.86,0,0,1,0-3.78h-4a42.52,42.52,0,0,1-1-7.79H57.6v.9a8.85,8.85,0,0,1,3.78,0v-.9H73.26a42.5,42.5,0,0,1-1,7.79h-4a8.86,8.86,0,0,1,0,3.78h2.87C69,79,65.48,83.33,61.38,84.35Zm5.6.92c3.33-2.64,6.07-7,7.81-12.32h7.91A27,27,0,0,1,67,85.27Z"/><circle class="cls-3" cx="59.49" cy="71.06" r="6.21"/><circle class="cls-3" cx="89.22" cy="59.5" r="6.21"/></svg>