<svg id="_1" data-name="1" xmlns="http://www.w3.org/2000/svg" viewBox="0 0 133.27 163.16"><defs><style>.cls-1{fill:#ba8125;}.cls-2{fill:#fff;}</style></defs><title>bronze</title><path class="cls-1" d="M128.36,56.68l-1.16-1.2c-4.27-4.4-7.09-13-6.25-19.08l.22-1.66a11.66,11.66,0,0,0-9.45-13l-1.64-.28c-6-1-13.32-6.32-16.21-11.74l-.79-1.47a11.57,11.57,0,0,0-15.22-4.9l-1.49.74c-5.48,2.72-14.47,2.76-20,.09l-1.5-.73a11.57,11.57,0,0,0-15.18,5L38.94,10c-2.84,5.44-10.1,10.79-16.11,11.87l-1.64.3a11.67,11.67,0,0,0-9.34,13l.24,1.66C13,43,10.22,51.56,6,56L4.84,57.21A11.72,11.72,0,0,0,4.9,73.27l1.16,1.2c4.27,4.4,7.08,13,6.25,19.07l-.22,1.66a11.66,11.66,0,0,0,9.45,13l1.64.28a23.34,23.34,0,0,1,9.17,4.15l0,.08C28.19,127,22.24,141.55,14.78,147.39a48.34,48.34,0,0,0,19-3.07s5.49,9.44,7.69,16.61c0,0,13.28-10.43,20.43-36.69v0a28.37,28.37,0,0,1,9.27-.16l0,.15c7.38,26.19,20.74,36.51,20.74,36.51,2.14-7.19,7.54-16.68,7.54-16.68a48.34,48.34,0,0,0,19,2.91c-7.44-5.73-13.47-20.1-17.73-34.23a23.78,23.78,0,0,1,9.69-4.65l1.64-.3a11.67,11.67,0,0,0,9.34-13l-.24-1.65C120.3,87,123,78.4,127.28,74l1.15-1.21A11.72,11.72,0,0,0,128.36,56.68Z"/><path class="cls-2" d="M45.63,87.21l6-6a1.78,1.78,0,0,1,2.4-.19S60,85.39,64.62,85.39c4.12,0,8.34-3.45,8.34-7.67s-4.32-7.77-11.41-7.77H56.18a1.89,1.89,0,0,1-1.82-1.82v-8a1.82,1.82,0,0,1,1.82-1.82h5.37c6.71,0,10.26-3.26,10.26-7.38a7.42,7.42,0,0,0-7.67-7.19A10.91,10.91,0,0,0,55.8,47.6a1.82,1.82,0,0,1-2.59.1l-5.85-5.75a1.71,1.71,0,0,1,0-2.49S55.22,31,65.68,31c11.13,0,20.72,6.81,20.72,17.55,0,7.39-5.56,12.85-9.88,14.87v.29C81,65.63,88.12,71.58,88.12,79.82c0,10.46-9.11,18.32-22.35,18.32-12.09,0-18.22-5.95-20.24-8.54A1.88,1.88,0,0,1,45.63,87.21Z"/></svg>