<svg id="Layer_1" data-name="Layer 1" xmlns="http://www.w3.org/2000/svg" viewBox="0 0 299.24 62.93"><defs><style>.cls-1{fill:#69be28;}</style></defs><title>jonsson</title><path class="cls-1" d="M15.65,4.38v20H10.78v-20H6.67V0H19.76V4.38Z"/><path class="cls-1" d="M31.23,24.38V14.18h-4v10.2H22.32V0h4.86V9.79h4V0H36V24.38Z"/><path class="cls-1" d="M39.85,24.38V0H51.09V4.38H44.72V9.9H50.2v4.38H44.72V20h6.37v4.38Z"/><path class="cls-1" d="M15,60c-1.79,1.88-4.19,2.92-7.68,2.92A10.19,10.19,0,0,1,0,60l4.61-4.52A3.66,3.66,0,0,0,7.35,56.9c2,0,3.44-1.41,3.44-4V29h6.69V52.9A10.2,10.2,0,0,1,15,60Z"/><path class="cls-1" d="M38.61,59.58a8.87,8.87,0,0,1-7.39,3.34,8.68,8.68,0,0,1-7.3-3.34c-2.68-3.2-2.5-9.28-2.5-13.8s-.19-10.59,2.5-13.8a8.68,8.68,0,0,1,7.3-3.34A8.87,8.87,0,0,1,38.61,32c2.68,3.2,2.5,9.28,2.5,13.8S41.29,56.38,38.61,59.58ZM33.52,36a2.37,2.37,0,0,0-2.31-1.32A2.23,2.23,0,0,0,29,36c-.8,1.55-.89,5.74-.89,9.79S28.2,54,29,55.58a2.23,2.23,0,0,0,2.21,1.32,2.37,2.37,0,0,0,2.31-1.32c.8-1.55.9-5.75.9-9.79S34.32,37.55,33.52,36Z"/><path class="cls-1" d="M59.09,62.55,52,46.16V62.55H45.29V29h5.84l7,16.39V29h6.69V62.55Z"/><path class="cls-1" d="M85.64,60.43a10.44,10.44,0,0,1-7.3,2.5c-3.3,0-5.74-.94-7.25-2.45s-2.21-4-2.21-7.44h6.69a4.49,4.49,0,0,0,.71,3.06,2.66,2.66,0,0,0,2.07.8,2.42,2.42,0,0,0,2.12-.85,4.38,4.38,0,0,0,.66-2.83c0-3.2-.52-3.77-2.92-4.76L74,46.73c-3.39-1.41-4.8-3.2-4.8-8.43a9.42,9.42,0,0,1,3-7.44,9.15,9.15,0,0,1,6.17-2.12c3,0,5.13.75,6.59,2.12,1.84,1.7,2.59,4.38,2.59,7.77H80.84a5,5,0,0,0-.56-3,2.16,2.16,0,0,0-1.93-.85,2.25,2.25,0,0,0-1.93.89,3.78,3.78,0,0,0-.56,2.4c0,2.12.38,2.73,2.31,3.53l4.19,1.7C86.6,45,87.82,46.93,87.82,53,87.81,56.38,87.38,58.74,85.64,60.43Z"/><path class="cls-1" d="M107.68,60.43a10.44,10.44,0,0,1-7.3,2.5c-3.3,0-5.74-.94-7.25-2.45s-2.21-4-2.21-7.44H97.6a4.49,4.49,0,0,0,.71,3.06,2.66,2.66,0,0,0,2.07.8,2.42,2.42,0,0,0,2.12-.85,4.38,4.38,0,0,0,.66-2.83c0-3.2-.52-3.77-2.92-4.76L96,46.73c-3.39-1.41-4.8-3.2-4.8-8.43a9.42,9.42,0,0,1,3-7.44,9.15,9.15,0,0,1,6.17-2.12c3,0,5.13.75,6.59,2.12,1.84,1.7,2.59,4.38,2.59,7.77h-6.69a5,5,0,0,0-.56-3,2.16,2.16,0,0,0-1.93-.85,2.25,2.25,0,0,0-1.93.89,3.78,3.78,0,0,0-.56,2.4c0,2.12.38,2.73,2.31,3.53l4.19,1.7c4.24,1.74,5.46,3.63,5.46,9.7C109.84,56.38,109.42,58.74,107.68,60.43Z"/><path class="cls-1" d="M130.23,59.58a8.87,8.87,0,0,1-7.39,3.34,8.68,8.68,0,0,1-7.3-3.34c-2.68-3.2-2.5-9.28-2.5-13.8s-.19-10.59,2.5-13.8a8.68,8.68,0,0,1,7.3-3.34A8.87,8.87,0,0,1,130.23,32c2.68,3.2,2.5,9.28,2.5,13.8S132.91,56.38,130.23,59.58ZM125.14,36a2.37,2.37,0,0,0-2.31-1.32A2.23,2.23,0,0,0,120.62,36c-.8,1.55-.89,5.74-.89,9.79s.09,8.24.89,9.79a2.23,2.23,0,0,0,2.21,1.32,2.37,2.37,0,0,0,2.31-1.32c.8-1.55.9-5.75.9-9.79S125.94,37.55,125.14,36Z"/><path class="cls-1" d="M150.71,62.55,143.6,46.16V62.55h-6.69V29h5.84l7,16.39V29h6.69V62.55Z"/><path class="cls-1" d="M185.26,60.43a10.44,10.44,0,0,1-7.3,2.5c-3.3,0-5.75-.94-7.25-2.45s-2.21-4-2.21-7.44h6.69a4.5,4.5,0,0,0,.71,3.06,2.66,2.66,0,0,0,2.07.8,2.42,2.42,0,0,0,2.12-.85,4.38,4.38,0,0,0,.66-2.83c0-3.2-.52-3.77-2.92-4.76l-4.24-1.74c-3.39-1.41-4.8-3.2-4.8-8.43a9.42,9.42,0,0,1,3-7.44A9.15,9.15,0,0,1,178,28.74c3,0,5.13.75,6.59,2.12,1.84,1.7,2.59,4.38,2.59,7.77h-6.69a5,5,0,0,0-.57-3,2.16,2.16,0,0,0-1.93-.85,2.25,2.25,0,0,0-1.93.89,3.78,3.78,0,0,0-.57,2.4c0,2.12.38,2.73,2.31,3.53L182,43.3c4.24,1.74,5.46,3.63,5.46,9.7C187.43,56.38,187,58.74,185.26,60.43Z"/><path class="cls-1" d="M206.92,60.53a8.86,8.86,0,0,1-6.5,2.4,8.67,8.67,0,0,1-7.3-3.34c-2.68-3.2-2.5-9.23-2.5-13.75s-.19-10.64,2.5-13.84a8.68,8.68,0,0,1,7.3-3.34,8.85,8.85,0,0,1,6.5,2.4,10.82,10.82,0,0,1,3,7.49H203.2a6.35,6.35,0,0,0-.52-2.59,2.58,2.58,0,0,0-4.47,0c-.8,1.55-.89,5.74-.89,9.79s.09,8.24.89,9.79a2.23,2.23,0,0,0,2.21,1.32,2.3,2.3,0,0,0,2.31-1.32,6.36,6.36,0,0,0,.52-2.59h6.69A11,11,0,0,1,206.92,60.53Z"/><path class="cls-1" d="M226.18,62.55v-14h-5.56v14h-6.69V29h6.69V42.49h5.56V29h6.69V62.55Z"/><path class="cls-1" d="M254.24,59.58a8.87,8.87,0,0,1-7.39,3.34,8.67,8.67,0,0,1-7.3-3.34c-2.68-3.2-2.5-9.28-2.5-13.8s-.19-10.59,2.5-13.8a8.68,8.68,0,0,1,7.3-3.34A8.87,8.87,0,0,1,254.24,32c2.68,3.2,2.5,9.28,2.5,13.8S256.92,56.38,254.24,59.58ZM249.15,36a2.37,2.37,0,0,0-2.31-1.32A2.23,2.23,0,0,0,244.63,36c-.8,1.55-.89,5.74-.89,9.79s.09,8.24.89,9.79a2.23,2.23,0,0,0,2.21,1.32,2.37,2.37,0,0,0,2.31-1.32c.8-1.55.89-5.75.89-9.79S250,37.55,249.15,36Z"/><path class="cls-1" d="M277.12,59.58a8.87,8.87,0,0,1-7.39,3.34,8.67,8.67,0,0,1-7.3-3.34c-2.68-3.2-2.5-9.28-2.5-13.8s-.19-10.59,2.5-13.8a8.68,8.68,0,0,1,7.3-3.34A8.87,8.87,0,0,1,277.12,32c2.68,3.2,2.5,9.28,2.5,13.8S279.8,56.38,277.12,59.58ZM272,36a2.37,2.37,0,0,0-2.31-1.32A2.23,2.23,0,0,0,267.51,36c-.8,1.55-.89,5.74-.89,9.79s.09,8.24.89,9.79a2.23,2.23,0,0,0,2.21,1.32A2.37,2.37,0,0,0,272,55.58c.8-1.55.89-5.75.89-9.79S272.83,37.55,272,36Z"/><path class="cls-1" d="M283.8,62.55V29h6.69V56.5h8.76v6Z"/></svg>