<svg id="Layer_1" data-name="Layer 1" xmlns="http://www.w3.org/2000/svg" viewBox="0 0 302.5 65.66"><defs><style>.cls-1{fill:#fff;}</style></defs><title>jonsson-white</title><path class="cls-1" d="M17.38,5.79v20H12.51v-20H8.4V1.41H21.49V5.79Z"/><path class="cls-1" d="M33,25.79V15.59H29v10.2H24.05V1.41h4.86V11.2h4V1.41h4.86V25.79Z"/><path class="cls-1" d="M41.58,25.79V1.41H52.82V5.79H46.45v5.52h5.48v4.38H46.45v5.72h6.37v4.38Z"/><path class="cls-1" d="M16.73,61.41c-1.79,1.88-4.19,2.92-7.68,2.92a10.19,10.19,0,0,1-7.32-2.87l4.61-4.52a3.66,3.66,0,0,0,2.74,1.37c2,0,3.44-1.41,3.44-4V30.41h6.69v23.9A10.2,10.2,0,0,1,16.73,61.41Z"/><path class="cls-1" d="M40.34,61A8.87,8.87,0,0,1,33,64.33,8.68,8.68,0,0,1,25.65,61c-2.68-3.2-2.5-9.28-2.5-13.8S23,36.6,25.65,33.39A8.68,8.68,0,0,1,33,30a8.87,8.87,0,0,1,7.39,3.36c2.68,3.2,2.5,9.28,2.5,13.8S43,57.79,40.34,61ZM35.25,37.41a2.37,2.37,0,0,0-2.31-1.32,2.23,2.23,0,0,0-2.21,1.32c-.8,1.55-.89,5.74-.89,9.79s.09,8.21.89,9.79a2.23,2.23,0,0,0,2.21,1.32A2.37,2.37,0,0,0,35.25,57c.8-1.55.9-5.75.9-9.79S36.05,39,35.25,37.41Z"/><path class="cls-1" d="M60.82,64,53.73,47.57V64H47V30.41h5.84l7,16.39V30.41h6.69V64Z"/><path class="cls-1" d="M87.37,61.84a10.44,10.44,0,0,1-7.3,2.5c-3.3,0-5.74-.94-7.25-2.45s-2.21-4-2.21-7.44H77.3A4.49,4.49,0,0,0,78,57.51a2.66,2.66,0,0,0,2.07.8,2.42,2.42,0,0,0,2.12-.85,4.38,4.38,0,0,0,.66-2.83c0-3.2-.52-3.77-2.92-4.76l-4.21-1.73c-3.39-1.41-4.8-3.2-4.8-8.43a9.42,9.42,0,0,1,3-7.44,9.15,9.15,0,0,1,6.17-2.12c3,0,5.13.75,6.59,2.12,1.84,1.7,2.59,4.38,2.59,7.77H82.57A5,5,0,0,0,82,37a2.16,2.16,0,0,0-1.93-.85,2.25,2.25,0,0,0-1.93.89,3.78,3.78,0,0,0-.56,2.4c0,2.12.38,2.73,2.31,3.53l4.19,1.7c4.24,1.74,5.46,3.63,5.46,9.7C89.54,57.79,89.11,60.15,87.37,61.84Z"/><path class="cls-1" d="M109.41,61.84a10.44,10.44,0,0,1-7.3,2.5c-3.3,0-5.74-.94-7.25-2.45s-2.21-4-2.21-7.44h6.68a4.49,4.49,0,0,0,.71,3.06,2.66,2.66,0,0,0,2.07.8,2.42,2.42,0,0,0,2.12-.85,4.38,4.38,0,0,0,.66-2.83c0-3.2-.52-3.77-2.92-4.76l-4.24-1.73c-3.39-1.41-4.8-3.2-4.8-8.43a9.42,9.42,0,0,1,3-7.44,9.15,9.15,0,0,1,6.17-2.12c3,0,5.13.75,6.59,2.12,1.84,1.7,2.59,4.38,2.59,7.77h-6.69a5,5,0,0,0-.56-3,2.16,2.16,0,0,0-1.93-.85,2.25,2.25,0,0,0-1.93.89,3.78,3.78,0,0,0-.56,2.4c0,2.12.38,2.73,2.31,3.53l4.19,1.7c4.24,1.74,5.46,3.63,5.46,9.7C111.57,57.79,111.15,60.15,109.41,61.84Z"/><path class="cls-1" d="M132,61a8.87,8.87,0,0,1-7.39,3.34,8.68,8.68,0,0,1-7.3-3.34c-2.68-3.2-2.5-9.28-2.5-13.8s-.19-10.59,2.5-13.8a8.68,8.68,0,0,1,7.3-3.34A8.87,8.87,0,0,1,132,33.41c2.68,3.2,2.5,9.28,2.5,13.8S134.64,57.79,132,61Zm-5.09-23.58a2.37,2.37,0,0,0-2.31-1.32,2.23,2.23,0,0,0-2.21,1.32c-.8,1.55-.89,5.74-.89,9.79s.09,8.24.89,9.79a2.23,2.23,0,0,0,2.21,1.32A2.37,2.37,0,0,0,126.87,57c.8-1.55.9-5.75.9-9.79S127.67,39,126.87,37.41Z"/><path class="cls-1" d="M152.44,64l-7.11-16.39V64h-6.69V30.41h5.84l7,16.39V30.41h6.69V64Z"/><path class="cls-1" d="M187,61.84a10.44,10.44,0,0,1-7.3,2.5c-3.3,0-5.75-.94-7.25-2.45s-2.21-4-2.21-7.44h6.69a4.5,4.5,0,0,0,.71,3.06,2.66,2.66,0,0,0,2.07.8,2.42,2.42,0,0,0,2.12-.85,4.38,4.38,0,0,0,.66-2.83c0-3.2-.52-3.77-2.92-4.76l-4.24-1.74c-3.39-1.41-4.8-3.2-4.8-8.43a9.42,9.42,0,0,1,3-7.44,9.15,9.15,0,0,1,6.21-2.11c3,0,5.13.75,6.59,2.12,1.84,1.7,2.59,4.38,2.59,7.77h-6.69a5,5,0,0,0-.57-3,2.16,2.16,0,0,0-1.93-.85,2.25,2.25,0,0,0-1.93.89,3.78,3.78,0,0,0-.57,2.4c0,2.12.38,2.73,2.31,3.53l4.19,1.7c4.24,1.74,5.46,3.63,5.46,9.7C189.16,57.79,188.73,60.15,187,61.84Z"/><path class="cls-1" d="M208.65,61.94a8.86,8.86,0,0,1-6.5,2.4,8.67,8.67,0,0,1-7.3-3.34c-2.68-3.2-2.5-9.23-2.5-13.75s-.19-10.64,2.5-13.84a8.68,8.68,0,0,1,7.3-3.34,8.85,8.85,0,0,1,6.5,2.4,10.82,10.82,0,0,1,3,7.49h-6.72a6.35,6.35,0,0,0-.52-2.59,2.58,2.58,0,0,0-4.47,0c-.8,1.55-.89,5.74-.89,9.79s.09,8.24.89,9.79a2.23,2.23,0,0,0,2.21,1.32A2.3,2.3,0,0,0,204.46,57,6.36,6.36,0,0,0,205,54.4h6.69A11,11,0,0,1,208.65,61.94Z"/><path class="cls-1" d="M227.91,64V50h-5.56V64h-6.69V30.41h6.69V43.9h5.56V30.41h6.69V64Z"/><path class="cls-1" d="M256,61a8.87,8.87,0,0,1-7.39,3.34,8.67,8.67,0,0,1-7.3-3.34c-2.68-3.2-2.5-9.28-2.5-13.8s-.19-10.59,2.5-13.8a8.68,8.68,0,0,1,7.3-3.34A8.87,8.87,0,0,1,256,33.41c2.68,3.2,2.5,9.28,2.5,13.8S258.65,57.79,256,61Zm-5.09-23.58a2.37,2.37,0,0,0-2.31-1.32,2.23,2.23,0,0,0-2.21,1.32c-.8,1.55-.89,5.74-.89,9.79s.09,8.24.89,9.79a2.23,2.23,0,0,0,2.21,1.32A2.37,2.37,0,0,0,250.88,57c.8-1.55.89-5.75.89-9.79S251.73,39,250.88,37.41Z"/><path class="cls-1" d="M278.85,61a8.87,8.87,0,0,1-7.39,3.34,8.67,8.67,0,0,1-7.3-3.34c-2.68-3.2-2.5-9.28-2.5-13.8s-.19-10.59,2.5-13.8a8.68,8.68,0,0,1,7.3-3.34,8.87,8.87,0,0,1,7.39,3.36c2.68,3.2,2.5,9.28,2.5,13.8S281.53,57.79,278.85,61Zm-5.12-23.58a2.37,2.37,0,0,0-2.31-1.32,2.23,2.23,0,0,0-2.18,1.32c-.8,1.55-.89,5.74-.89,9.79s.09,8.24.89,9.79a2.23,2.23,0,0,0,2.21,1.32A2.37,2.37,0,0,0,273.73,57c.8-1.55.89-5.75.89-9.79S274.56,39,273.73,37.41Z"/><path class="cls-1" d="M285.53,64V30.41h6.69v27.5H301v6Z"/></svg>