<svg id="_1" data-name="1" xmlns="http://www.w3.org/2000/svg" viewBox="0 0 133.27 163.16"><defs><style>.cls-1{fill:#b7b7b7;}.cls-2{fill:#fff;}</style></defs><title>silver</title><path class="cls-1" d="M128.36,56.68l-1.16-1.2c-4.27-4.4-7.09-13-6.25-19.08l.22-1.66a11.66,11.66,0,0,0-9.45-13l-1.64-.28c-6-1-13.32-6.32-16.21-11.74l-.79-1.47a11.57,11.57,0,0,0-15.22-4.9l-1.49.74c-5.48,2.72-14.47,2.76-20,.09l-1.5-.73a11.57,11.57,0,0,0-15.18,5L38.94,10c-2.84,5.44-10.1,10.79-16.11,11.87l-1.64.3a11.67,11.67,0,0,0-9.34,13l.24,1.66C13,43,10.22,51.56,6,56L4.84,57.21A11.72,11.72,0,0,0,4.9,73.27l1.16,1.2c4.27,4.4,7.08,13,6.25,19.07l-.22,1.66a11.66,11.66,0,0,0,9.45,13l1.64.28a23.34,23.34,0,0,1,9.17,4.15l0,.08C28.19,127,22.24,141.55,14.78,147.39a48.34,48.34,0,0,0,19-3.07s5.49,9.44,7.69,16.61c0,0,13.28-10.43,20.43-36.69v0a28.37,28.37,0,0,1,9.27-.16l0,.15c7.38,26.19,20.74,36.51,20.74,36.51,2.14-7.19,7.54-16.68,7.54-16.68a48.34,48.34,0,0,0,19,2.91c-7.44-5.73-13.47-20.1-17.73-34.23a23.78,23.78,0,0,1,9.69-4.65l1.64-.3a11.67,11.67,0,0,0,9.34-13l-.24-1.65C120.3,87,123,78.4,127.28,74l1.15-1.21A11.72,11.72,0,0,0,128.36,56.68Z"/><path class="cls-2" d="M45.39,93.92C51,86.63,65.15,67.36,70.81,58.72a14.1,14.1,0,0,0,2.49-7.29c0-3.65-3.07-6.91-8.44-6.91-3.93,0-7.48,2.78-9.3,4.8a1.85,1.85,0,0,1-2.69,0L47,43.38a1.79,1.79,0,0,1-.1-2.49s7.77-9.4,19.18-9.4c13.72,0,21.77,8.73,21.77,19.38,0,5.08-1.44,8-3.74,12.47C81.07,68.79,73.2,79.06,68.7,85.39H85.58a1.89,1.89,0,0,1,1.82,1.82v8.63a1.89,1.89,0,0,1-1.82,1.82H47.21a1.82,1.82,0,0,1-1.82-1.82Z"/></svg>