<svg id="Layer_1" data-name="Layer 1" xmlns="http://www.w3.org/2000/svg" viewBox="0 0 133.79 50.63"><defs><style>.cls-1{fill:#e3701e;}</style></defs><title>utdallas</title><path class="cls-1" d="M52.82,24.91A13.06,13.06,0,0,0,51,21.2c-.58-.52-.41-.46-.41-.46l-.06-7.12a12,12,0,0,1-2.9-.64,5.78,5.78,0,0,0-2.84-.87c-.81.12-2.72,1-3.88.75a7.59,7.59,0,0,0-2.49-.12,8.23,8.23,0,0,1-2.66.06,23.06,23.06,0,0,0-2.84-1.22,6.07,6.07,0,0,1-2.14-.52c-.75-.35-.93-1-1.62-.87s-2-.75-2-.75V1.06L15.36,1V21.38H1a1.66,1.66,0,0,0,.46.93c.35.23,2,1.85,3.24,3.13A18.6,18.6,0,0,0,7.84,27.8s.29,1.45.46,2.14a11.21,11.21,0,0,0,1.85,3.59c.7.64,1.62.58,2.32,1a6.27,6.27,0,0,0,2,1c.58.12,1.1-.93,1.45-1.39s-.12-1.56.7-1.79a12.5,12.5,0,0,0,1.33-.52,7,7,0,0,1,1-.14,5.58,5.58,0,0,0,2.47,2A8.4,8.4,0,0,0,24,34.4c.71,1,1.87,3.65,2.33,4.4s1.91,3.13,2.43,3.24.52,1.33.81,1.91,1.22,2.72,1.33,3,.17.46.17.46a5.92,5.92,0,0,1,1.68.41,11.92,11.92,0,0,0,2.2.75c.81.23,2.78,1.1,3.59,1s1.51-.17,1.16-.52a10.19,10.19,0,0,1-1-4.4c.12-1.28.87-5.21,1.62-5.44s2.89-1.85,4.11-2.49,4.11-3.65,5-4.05a13.07,13.07,0,0,0,2.72-1.39,3.72,3.72,0,0,0,.64-2.55c-.17-.93.41-3,.12-3.88M33.09,17.59a3.47,3.47,0,0,0-1.5.54,2,2,0,0,0-.36,1.47v7.62a6.84,6.84,0,0,1-1.46,4.69,5.84,5.84,0,0,1-4.6,1.65A10.38,10.38,0,0,1,23,33.33h0a5.28,5.28,0,0,1-3-1.66h0a4.66,4.66,0,0,1-.43-.59,6.34,6.34,0,0,1-.8-3.36v-8a2.62,2.62,0,0,0-.36-1.69,3,3,0,0,0-1.6-.49V17h8v.6A3.25,3.25,0,0,0,23,18q-.47.38-.46,1.75v8A7.25,7.25,0,0,0,23,30.54a2.94,2.94,0,0,0,3,1.84,3.71,3.71,0,0,0,3.71-2,7.4,7.4,0,0,0,.53-3.13V19.94a2.54,2.54,0,0,0-.47-1.77,2.92,2.92,0,0,0-1.84-.59V17h5.2ZM47.48,21.8a4.36,4.36,0,0,0-1.93-3.49,5.92,5.92,0,0,0-2.67-.55V30.3A2.41,2.41,0,0,0,43.35,32a3,3,0,0,0,1.92.43v.6h-8.5v-.6A2.83,2.83,0,0,0,38.63,32a2.42,2.42,0,0,0,.46-1.74V17.76a6.09,6.09,0,0,0-2.67.55A4.05,4.05,0,0,0,34.5,21.8h-.68l0-4.81h14.3l0,4.81Zm21.44-2.46Q66.61,17,62.2,17H54.92v.6a3.62,3.62,0,0,1,1.34.29,1.34,1.34,0,0,1,.67,1.29V30.9a1.36,1.36,0,0,1-.71,1.33,3.67,3.67,0,0,1-1.3.26v.6h7.53a8.47,8.47,0,0,0,6.47-2.52A7.67,7.67,0,0,0,71,25.08a7.83,7.83,0,0,0-2.11-5.74M65.53,30.79a4.49,4.49,0,0,1-3.47,1.5A1.22,1.22,0,0,1,61,32a2,2,0,0,1-.27-1.06V19.17a1.81,1.81,0,0,1,.19-1q.28-.4,1.21-.4a4.1,4.1,0,0,1,4,2.92A11.6,11.6,0,0,1,66.89,25q0,4.25-1.36,5.74m51.38,1.6a4.66,4.66,0,0,1-1.32.17v.52h6.67v-.52a1.22,1.22,0,0,1-1.09-.51A15,15,0,0,1,120,29.68l-4.59-10.83h-.6l-4.56,11.29a9.42,9.42,0,0,1-.84,1.74,1.55,1.55,0,0,1-1.2.68v.52h4.21v-.52a4,4,0,0,1-1.06-.12c-.4-.14-.59-.35-.59-.65a4.16,4.16,0,0,1,.27-1.17q.13-.37.6-1.61h4.6l.53,1.26c.12.28.21.51.28.71a2.77,2.77,0,0,1,.16.74c0,.36-.11.58-.32.67m-5-4.19,1.87-4.76H114l2,4.76Zm20.83.86a3.92,3.92,0,0,0-1.13-2.84A6,6,0,0,0,130,25.08l-1.52-.77A12.93,12.93,0,0,1,126,22.86a2,2,0,0,1,0-2.85,2.26,2.26,0,0,1,1.62-.57,3.2,3.2,0,0,1,2.48,1.14,6.32,6.32,0,0,1,1.43,2.71h.57V18.8h-.62a1.6,1.6,0,0,1-.21.49.53.53,0,0,1-.46.19,8.05,8.05,0,0,1-1.19-.34,7,7,0,0,0-2.17-.34,4,4,0,0,0-3.26,1.31,4.38,4.38,0,0,0-1.06,2.82,3.6,3.6,0,0,0,.8,2.39,8.65,8.65,0,0,0,2.75,2l1.31.66a7.44,7.44,0,0,1,1.62,1,2,2,0,0,1,.6,1.51,2.24,2.24,0,0,1-2.53,2.24,3.51,3.51,0,0,1-2.5-1,6.41,6.41,0,0,1-1.59-3.36h-.6v5.11h.6a1.8,1.8,0,0,1,.21-.5.49.49,0,0,1,.44-.18l.22,0,.27.06.4.14a6.83,6.83,0,0,0,1.24.34,7.26,7.26,0,0,0,1.24.11A4.91,4.91,0,0,0,131.57,32,4.41,4.41,0,0,0,132.78,29m-37.9-.66a6.48,6.48,0,0,1-2.18,3.21,5.57,5.57,0,0,1-3.12.83,3,3,0,0,1-1.4-.22,1,1,0,0,1-.36-.91V21.53c0-.82.14-1.33.42-1.53a3.33,3.33,0,0,1,1.69-.35v-.52H82.75v.52a3,3,0,0,1,1.21.24,1.27,1.27,0,0,1,.57,1.22v10a1.27,1.27,0,0,1-.6,1.23,2.74,2.74,0,0,1-1.1.22,1.18,1.18,0,0,1-.9-.5,15,15,0,0,1-1.16-2.37L76.19,18.85h-.6L71,30.14a9.48,9.48,0,0,1-.83,1.74,1.56,1.56,0,0,1-1.2.68v.52h4.21v-.52a4,4,0,0,1-1.06-.12q-.59-.2-.59-.65a4,4,0,0,1,.27-1.17c.09-.25.29-.79.6-1.61H77l.53,1.26c.11.28.21.51.28.71a2.77,2.77,0,0,1,.16.74c0,.36-.11.58-.32.67a4.65,4.65,0,0,1-1.32.17v.52H94.64l.85-4.68Zm-22.15-.2,1.87-4.76h.15l2,4.76Zm35.32.2h-.61a6.52,6.52,0,0,1-2.18,3.21,5.59,5.59,0,0,1-3.12.83,3,3,0,0,1-1.39-.22,1,1,0,0,1-.36-.91V21.53c0-.82.14-1.33.42-1.53a3.31,3.31,0,0,1,1.69-.35v-.52H95.31v.52a3,3,0,0,1,1.21.24,1.27,1.27,0,0,1,.57,1.22v10a1.26,1.26,0,0,1-.6,1.23,2.9,2.9,0,0,1-1.18.22v.52h11.89Z"/></svg>